<svg width="17" height="25" viewBox="0 0 17 25" fill="none" xmlns="http://www.w3.org/2000/svg">
<path d="M5.73747 9.35335C6.21397 10.803 6.86353 12.1616 7.68616 13.3632C8.50879 14.5648 9.43895 15.5136 10.4314 16.2096C10.5168 16.2694 10.5594 16.2994 10.6135 16.3224C10.8054 16.4041 11.0411 16.3454 11.2036 16.1754C11.2494 16.1275 11.2885 16.0704 11.3668 15.9561C11.6061 15.6064 11.7258 15.4316 11.8461 15.3174C12.3 14.8864 12.885 14.8864 13.3389 15.3174C13.4592 15.4316 13.5789 15.6064 13.8182 15.9561L13.9516 16.1509C14.3155 16.6824 14.4974 16.9481 14.5962 17.2335C14.7927 17.801 14.7927 18.4713 14.5962 19.0389C14.4974 19.3242 14.3155 19.59 13.9516 20.1214L13.8437 20.279C13.4811 20.8087 13.2998 21.0735 13.0533 21.2757C12.7798 21.5001 12.355 21.6615 12.0413 21.6601C11.7586 21.6589 11.5654 21.5788 11.1789 21.4186C9.10221 20.5576 7.14257 18.9332 5.5077 16.5452C3.87283 14.1572 2.76067 11.2948 2.17123 8.26144C2.06155 7.69699 2.00671 7.41477 2.00587 7.00182C2.00493 6.5436 2.1154 5.92311 2.26905 5.5236C2.40751 5.16357 2.58881 4.89876 2.9514 4.36913L3.05932 4.2115C3.42316 3.68006 3.60508 3.41433 3.80046 3.26999C4.18903 2.98292 4.64791 2.98292 5.03647 3.26999C5.23185 3.41433 5.41377 3.68006 5.77761 4.2115L5.91102 4.40637C6.15037 4.75597 6.27004 4.93078 6.34829 5.10655C6.64336 5.76945 6.64336 6.62403 6.34829 7.28692C6.27004 7.46269 6.15037 7.6375 5.91102 7.9871C5.83276 8.10142 5.79363 8.15857 5.76088 8.22538C5.64448 8.46281 5.60429 8.80707 5.66024 9.08743C5.67599 9.16632 5.69648 9.22866 5.73747 9.35335Z" stroke="black" stroke-width="2" stroke-linecap="round" stroke-linejoin="round"/>
</svg>
