<svg width="35" height="35" viewBox="0 0 35 35" fill="none" xmlns="http://www.w3.org/2000/svg">
<path d="M33.8421 17.5407C33.8514 17.2606 33.7487 16.9807 33.5388 16.7754L30.0434 13.2987C29.642 12.8973 28.9934 12.902 28.592 13.3034C28.1907 13.7048 28.1953 14.3534 28.5967 14.7548L30.328 16.4814L2.14602 16.4813C1.57669 16.4813 1.11938 16.9386 1.11938 17.5079C1.11938 18.0773 1.57672 18.5346 2.14602 18.5346H30.398L28.6107 20.3219C28.2093 20.7233 28.2093 21.3719 28.6107 21.7733C28.8113 21.974 29.0727 22.0719 29.3387 22.0719C29.6 22.0719 29.866 21.974 30.0667 21.7733L33.5434 18.2967C33.7487 18.0866 33.8467 17.8112 33.842 17.5406L33.8421 17.5407Z" fill="#0235B5"/>
</svg>
