<svg width="24" height="25" viewBox="0 0 24 25" fill="none" xmlns="http://www.w3.org/2000/svg">
<path d="M3 8.65156C3 6.9714 3 6.13133 3.32698 5.48959C3.6146 4.9251 4.07354 4.46616 4.63803 4.17854C5.27976 3.85156 6.11984 3.85156 7.8 3.85156H16.2C17.8802 3.85156 18.7202 3.85156 19.362 4.17854C19.9265 4.46616 20.3854 4.9251 20.673 5.48959C21 6.13133 21 6.97141 21 8.65156V17.0516C21 18.7317 21 19.5718 20.673 20.2135C20.3854 20.778 19.9265 21.237 19.362 21.5246C18.7202 21.8516 17.8802 21.8516 16.2 21.8516H7.8C6.11984 21.8516 5.27976 21.8516 4.63803 21.5246C4.07354 21.237 3.6146 20.778 3.32698 20.2135C3 19.5718 3 18.7317 3 17.0516V8.65156Z" stroke="black" stroke-linecap="round" stroke-linejoin="round"/>
</svg>
