<svg width="16" height="12" viewBox="0 0 16 12" fill="none" xmlns="http://www.w3.org/2000/svg">
<path d="M1.50049 0C0.672363 0 0.000488281 0.671875 0.000488281 1.5C0.000488281 1.97187 0.222363 2.41562 0.600488 2.7L7.40049 7.8C7.75674 8.06563 8.24424 8.06563 8.60049 7.8L15.4005 2.7C15.7786 2.41562 16.0005 1.97187 16.0005 1.5C16.0005 0.671875 15.3286 0 14.5005 0H1.50049ZM0.000488281 3.5V10C0.000488281 11.1031 0.897363 12 2.00049 12H14.0005C15.1036 12 16.0005 11.1031 16.0005 10V3.5L9.20049 8.6C8.48799 9.13438 7.51299 9.13438 6.80049 8.6L0.000488281 3.5Z" fill="white"/>
</svg>
