<?xml version="1.0" standalone="no"?>
<!DOCTYPE svg PUBLIC "-//W3C//DTD SVG 20010904//EN"
 "http://www.w3.org/TR/2001/REC-SVG-20010904/DTD/svg10.dtd">
<svg version="1.0" xmlns="http://www.w3.org/2000/svg"
 width="1735.000000pt" height="609.000000pt" viewBox="0 0 1735.000000 609.000000"
 preserveAspectRatio="xMidYMid meet">

<g transform="translate(0.000000,609.000000) scale(0.100000,-0.100000)"
fill="#000000" stroke="none">
<path d="M0 3045 l0 -3045 4113 0 4112 0 102 423 c57 232 258 1061 449 1842
793 3260 924 3800 924 3812 0 11 -923 13 -4850 13 l-4850 0 0 -3045z"/>
<path d="M13753 5603 c-30 -4 -33 -7 -33 -39 0 -18 12 -68 26 -111 26 -74 27
-80 21 -247 -8 -218 -39 -449 -78 -585 -2 -8 4 -15 16 -16 11 -1 27 -6 36 -9
14 -6 19 6 33 81 38 210 56 434 46 568 -1 11 2 67 7 125 12 151 -3 248 -37
238 -3 -1 -20 -3 -37 -5z"/>
<path d="M12230 5530 c0 -11 62 -41 69 -34 7 6 -41 44 -56 44 -7 0 -13 -5 -13
-10z"/>
<path d="M11913 5467 c-16 -19 -65 -87 -109 -153 -43 -65 -105 -145 -138 -177
-63 -63 -67 -85 -8 -50 96 58 119 65 155 49 23 -9 48 -33 71 -70 37 -54 176
-210 227 -253 15 -13 31 -41 37 -65 10 -39 9 -48 -16 -98 -15 -30 -41 -93 -57
-140 l-28 -86 25 -39 c51 -83 97 -162 134 -235 l38 -75 16 65 c33 129 33 123
-12 149 -38 21 -40 25 -35 59 3 21 8 44 11 53 4 8 -2 25 -12 37 -28 32 -40
198 -17 241 18 36 40 42 30 9 -6 -17 -4 -20 9 -15 13 5 15 2 10 -17 -5 -20 -2
-22 24 -18 27 4 30 1 42 -43 9 -31 17 -44 26 -41 7 3 18 -3 23 -12 8 -14 12
-11 26 21 9 21 27 75 41 120 28 91 132 395 161 470 l18 49 -64 60 c-34 33 -85
86 -112 118 -26 32 -61 68 -78 79 l-30 22 6 -33 c7 -44 -13 -60 -107 -87 -41
-12 -112 -38 -157 -58 -66 -28 -87 -33 -109 -26 -32 11 -47 49 -34 90 9 30 28
133 24 133 -1 0 -15 -15 -31 -33z m544 -176 c2 -21 -10 -34 -39 -44 -27 -9
-29 7 -6 36 26 32 43 35 45 8z m-63 -54 c13 -10 16 -20 12 -35 -9 -27 -43 -37
-80 -23 -33 13 -32 40 4 58 32 16 42 16 64 0z m-83 -234 c8 -22 -10 -53 -31
-53 -14 0 -42 51 -36 66 9 23 57 13 67 -13z"/>
<path d="M16916 3613 c-235 -967 -486 -1994 -556 -2283 -201 -818 -320 -1312
-320 -1321 0 -5 295 -9 655 -9 l655 0 0 2685 c0 1477 -1 2685 -3 2685 -1 0
-195 -791 -431 -1757z"/>
<path d="M10573 5103 c-39 -8 -44 -25 -28 -94 8 -35 26 -147 40 -249 13 -102
51 -318 84 -480 32 -162 69 -359 82 -438 l22 -143 23 28 c26 33 27 21 -33 318
-78 388 -104 527 -124 680 -32 240 -34 269 -15 315 28 69 21 77 -51 63z"/>
<path d="M13622 4546 c-16 -26 -31 -38 -64 -46 -53 -15 -162 -65 -176 -83 -6
-7 17 1 52 19 132 66 261 67 394 3 65 -31 126 -95 160 -166 19 -39 24 -40 38
-8 23 48 -62 178 -155 237 -51 32 -73 35 -91 13 -7 -8 -21 -15 -32 -15 -29 0
-78 38 -78 61 0 30 -26 22 -48 -15z"/>
<path d="M12270 4499 c0 -5 -4 -7 -10 -4 -5 3 -10 2 -10 -4 0 -17 22 -24 31
-10 12 19 11 29 -1 29 -5 0 -10 -5 -10 -11z"/>
<path d="M13256 4348 c-16 -25 -59 -120 -70 -154 -5 -15 -2 -24 9 -28 12 -4
23 10 46 57 16 34 39 77 50 94 11 18 18 37 14 43 -10 17 -34 11 -49 -12z"/>
<path d="M15308 4039 c-16 -6 -28 -15 -28 -21 0 -6 7 -7 18 -3 60 26 197 9
301 -35 65 -28 23 4 -49 37 -62 29 -194 41 -242 22z"/>
<path d="M15670 3940 c20 -13 33 -13 25 0 -3 6 -14 10 -23 10 -15 0 -15 -2 -2
-10z"/>
<path d="M14038 3835 c-4 -21 -1 -28 16 -35 26 -10 39 1 34 31 -5 36 -44 38
-50 4z"/>
<path d="M15911 3368 c-18 -28 -81 -105 -142 -172 -43 -47 -165 -243 -157
-252 2 -2 21 3 42 10 32 11 36 15 22 23 -15 8 -14 15 12 74 27 61 34 68 102
107 40 23 76 42 81 42 8 0 43 101 54 158 8 38 5 40 -14 10z"/>
<path d="M15850 3086 c0 -8 -26 -33 -57 -55 -56 -40 -56 -56 0 -26 15 8 35 11
45 8 15 -6 16 -5 2 12 -14 17 -13 18 3 12 12 -5 17 -1 17 12 0 11 3 26 6 35 3
9 1 16 -5 16 -6 0 -11 -6 -11 -14z"/>
<path d="M15880 2980 c0 -5 5 -10 10 -10 6 0 10 5 10 10 0 6 -4 10 -10 10 -5
0 -10 -4 -10 -10z"/>
<path d="M15886 2945 c-10 -8 -24 -16 -30 -18 -6 -2 -8 -7 -5 -11 9 -9 89 12
89 23 0 5 -7 12 -16 15 -19 7 -15 8 -38 -9z"/>
<path d="M14233 2728 c-25 -33 -23 -36 19 -31 68 8 76 12 54 29 -24 17 -60 18
-73 2z"/>
<path d="M15252 2684 c-70 -47 -61 -54 13 -10 67 41 73 46 54 46 -8 0 -38 -17
-67 -36z"/>
<path d="M14680 2580 c-8 -15 -8 -20 2 -20 22 0 41 17 34 29 -11 17 -24 13
-36 -9z"/>
<path d="M11511 2528 c-6 -16 -15 -28 -21 -28 -5 0 -10 -6 -10 -14 0 -19 -135
-78 -255 -112 -33 -9 -127 -49 -210 -89 -153 -74 -215 -102 -295 -130 l-45
-16 58 5 c38 3 84 17 135 41 141 68 177 83 217 95 22 7 58 23 81 36 54 30 184
74 223 74 16 0 41 -5 55 -11 20 -9 29 -9 41 1 20 16 62 -10 71 -45 13 -51 10
-90 -7 -89 -11 1 -14 -5 -12 -20 4 -17 -5 -26 -39 -44 -24 -13 -36 -21 -27
-18 49 14 127 17 134 6 6 -9 9 -9 16 1 5 8 0 26 -12 45 -15 25 -19 47 -17 110
2 72 -1 85 -34 154 -35 74 -36 75 -47 48z"/>
<path d="M13924 2448 l-19 -23 23 19 c21 18 27 26 19 26 -2 0 -12 -10 -23 -22z"/>
<path d="M12350 2306 c0 -3 19 -18 43 -33 23 -16 51 -36 61 -45 29 -26 38 -22
34 13 -3 29 -8 33 -48 44 -25 6 -55 15 -67 19 -13 4 -23 5 -23 2z"/>
<path d="M11180 2070 c-8 -5 -10 -10 -5 -10 6 0 17 5 25 10 8 5 11 10 5 10 -5
0 -17 -5 -25 -10z"/>
<path d="M11672 1963 c8 -10 18 -25 21 -34 3 -9 15 -19 26 -22 24 -6 20 4 -18
46 -28 29 -54 38 -29 10z"/>
<path d="M14660 1945 c-7 -9 -11 -18 -8 -20 3 -3 11 1 18 10 7 9 11 18 8 20
-3 3 -11 -1 -18 -10z"/>
<path d="M12135 1530 c-3 -5 -1 -10 4 -10 6 0 11 5 11 10 0 6 -2 10 -4 10 -3
0 -8 -4 -11 -10z"/>
<path d="M12563 1490 c-34 -22 -66 -40 -71 -40 -4 0 -21 -13 -38 -28 -16 -16
-48 -41 -71 -57 -24 -15 -43 -29 -43 -30 0 -1 28 8 63 20 73 24 133 60 148 86
5 11 15 19 22 19 20 1 59 39 55 54 -2 12 -18 6 -65 -24z"/>
<path d="M11958 1467 c-46 -24 -139 -73 -208 -109 -141 -74 -270 -127 -379
-156 -40 -11 -81 -27 -89 -36 -23 -22 -10 -21 126 13 150 38 236 71 320 122
66 42 110 66 270 148 45 24 82 47 82 52 0 19 -43 7 -122 -34z"/>
<path d="M12529 1283 l-24 -28 28 24 c15 14 27 26 27 28 0 8 -8 1 -31 -24z"/>
<path d="M10062 1233 c-26 -38 -34 -53 -29 -53 2 0 16 18 31 40 29 45 28 56
-2 13z"/>
<path d="M12459 1213 c-13 -16 -12 -17 4 -4 16 13 21 21 13 21 -2 0 -10 -8
-17 -17z"/>
<path d="M10162 990 c0 -14 2 -19 5 -12 2 6 2 18 0 25 -3 6 -5 1 -5 -13z"/>
<path d="M10154 813 c4 -45 10 -93 15 -105 7 -19 9 -15 15 24 4 28 3 55 -3 67
-6 11 -11 30 -11 43 0 13 -5 30 -11 38 -8 11 -9 -8 -5 -67z"/>
<path d="M10176 643 c12 -62 33 -104 91 -180 56 -75 99 -114 187 -170 42 -27
56 -32 90 -27 88 12 145 28 231 66 110 49 151 76 136 91 -14 14 -171 12 -236
-3 -27 -6 -66 -8 -86 -5 -31 5 -39 3 -53 -17 -14 -20 -25 -23 -74 -23 -75 1
-112 24 -112 71 0 25 7 38 25 50 34 22 32 31 -12 49 -60 25 -162 95 -168 116
-11 35 -26 20 -19 -18z"/>
</g>
</svg>
