<?xml version="1.0" standalone="no"?>
<!DOCTYPE svg PUBLIC "-//W3C//DTD SVG 20010904//EN"
 "http://www.w3.org/TR/2001/REC-SVG-20010904/DTD/svg10.dtd">
<svg version="1.0" xmlns="http://www.w3.org/2000/svg"
 width="1735.000000pt" height="609.000000pt" viewBox="0 0 1735.000000 609.000000"
 preserveAspectRatio="xMidYMid meet">

<g transform="translate(0.000000,609.000000) scale(0.100000,-0.100000)"
fill="#000000" stroke="none">
<path d="M0 3045 l0 -3045 4113 0 4112 0 734 3018 c404 1659 737 3029 739
3045 l4 27 -4851 0 -4851 0 0 -3045z"/>
<path d="M12380 6080 c0 -5 5 -10 10 -10 6 0 10 5 10 10 0 6 -4 10 -10 10 -5
0 -10 -4 -10 -10z"/>
<path d="M12880 6080 c0 -5 5 -10 10 -10 6 0 10 5 10 10 0 6 -4 10 -10 10 -5
0 -10 -4 -10 -10z"/>
<path d="M13510 6074 c0 -8 5 -12 10 -9 6 3 10 10 10 16 0 5 -4 9 -10 9 -5 0
-10 -7 -10 -16z"/>
<path d="M13630 6086 c0 -2 7 -7 16 -10 8 -3 12 -2 9 4 -6 10 -25 14 -25 6z"/>
<path d="M13780 6080 c0 -28 31 -80 46 -80 10 0 30 -12 46 -27 15 -14 31 -23
35 -19 5 4 -1 14 -12 22 -11 8 -20 23 -20 32 0 10 -9 18 -23 20 -18 3 -21 7
-12 17 8 10 4 17 -21 29 -38 19 -39 19 -39 6z"/>
<path d="M13670 6054 c-14 -36 -12 -54 5 -54 8 0 15 -7 15 -16 0 -11 -6 -13
-19 -9 -18 5 -19 3 -10 -30 6 -20 8 -43 5 -51 -3 -9 1 -31 9 -50 12 -29 19
-34 49 -34 35 0 55 13 36 25 -6 4 -7 12 -3 18 4 7 0 6 -10 -2 -15 -12 -17 -10
-17 18 0 17 -5 31 -12 31 -6 0 -9 3 -6 6 3 3 14 1 25 -5 10 -5 26 -12 35 -15
14 -4 16 -12 12 -36 -6 -28 -4 -30 22 -30 16 0 47 5 69 11 22 6 49 11 61 11
16 0 7 13 -43 64 -35 35 -73 64 -83 64 -22 0 -26 -10 -9 -27 16 -16 -8 -28
-26 -13 -11 9 -12 17 -5 31 9 15 5 21 -19 33 -32 17 -54 53 -24 41 39 -16 56
-18 49 -7 -4 7 -13 12 -20 12 -7 0 -25 9 -39 20 -32 26 -36 25 -47 -6z m70
-89 c10 -13 9 -15 -9 -15 -12 0 -21 6 -21 15 0 8 4 15 9 15 5 0 14 -7 21 -15z
m110 -35 c0 -5 -4 -10 -10 -10 -5 0 -10 5 -10 10 0 6 5 10 10 10 6 0 10 -4 10
-10z m-80 -20 c0 -5 -4 -10 -10 -10 -5 0 -10 5 -10 10 0 6 5 10 10 10 6 0 10
-4 10 -10z m123 -25 c18 -25 18 -25 -8 -35 -37 -14 -74 -3 -68 20 3 11 11 16
19 13 8 -3 17 2 20 11 8 22 16 20 37 -9z"/>
<path d="M13460 6060 c0 -5 5 -10 11 -10 5 0 7 5 4 10 -3 6 -8 10 -11 10 -2 0
-4 -4 -4 -10z"/>
<path d="M12305 6049 c-10 -15 3 -25 16 -12 7 7 7 13 1 17 -6 3 -14 1 -17 -5z"/>
<path d="M12430 6040 c0 -5 5 -10 10 -10 6 0 10 5 10 10 0 6 -4 10 -10 10 -5
0 -10 -4 -10 -10z"/>
<path d="M12644 6039 c-3 -6 0 -16 6 -24 9 -11 16 -12 30 -3 10 7 17 15 15 19
-8 12 -45 17 -51 8z"/>
<path d="M12357 6010 c-9 -16 -11 -32 -7 -35 8 -5 40 44 40 60 0 16 -21 1 -33
-25z"/>
<path d="M13260 6030 c0 -5 9 -14 19 -19 16 -9 18 -8 14 9 -5 20 -33 29 -33
10z"/>
<path d="M13340 6010 c0 -5 5 -10 11 -10 5 0 7 5 4 10 -3 6 -8 10 -11 10 -2 0
-4 -4 -4 -10z"/>
<path d="M13377 6014 c-3 -4 -2 -16 4 -26 13 -24 35 -9 26 16 -7 17 -19 21
-30 10z"/>
<path d="M12305 5999 c-10 -15 3 -25 16 -12 7 7 7 13 1 17 -6 3 -14 1 -17 -5z"/>
<path d="M12700 5994 c0 -8 5 -12 10 -9 6 3 10 10 10 16 0 5 -4 9 -10 9 -5 0
-10 -7 -10 -16z"/>
<path d="M12883 5985 c-15 -17 -17 -35 -4 -35 5 0 17 -7 25 -16 17 -16 56 -11
56 8 0 6 -3 8 -6 5 -4 -4 -19 7 -33 23 -22 24 -28 27 -38 15z"/>
<path d="M11208 5934 c-46 -31 -107 -79 -137 -106 -50 -46 -159 -106 -251
-138 -100 -35 -227 -67 -239 -60 -10 5 -31 -6 -64 -31 -27 -22 -53 -39 -58
-39 -9 0 -89 -102 -89 -115 0 -4 13 10 29 33 38 52 49 58 69 38 9 -8 31 -28
47 -44 49 -47 74 -103 38 -84 -10 5 -23 7 -30 5 -6 -2 -14 1 -18 6 -11 18 -22
12 -27 -13 -4 -19 0 -26 18 -30 34 -9 21 -46 -17 -46 -34 0 -38 -15 -9 -30 25
-13 26 -30 3 -31 -10 0 0 -7 22 -15 22 -8 44 -19 50 -25 14 -14 -14 -30 -42
-22 -39 9 -26 -15 23 -43 l45 -27 -30 -15 c-31 -14 -34 -37 -5 -25 13 5 15 1
9 -17 -8 -24 -8 -24 20 -6 30 20 44 16 21 -7 -8 -8 -17 -21 -18 -28 -2 -7 -12
-21 -23 -31 -11 -10 -15 -18 -10 -17 27 4 55 -2 55 -11 0 -5 -6 -10 -14 -10
-7 0 -19 -7 -26 -15 -8 -9 -8 -15 -2 -15 22 0 -19 -58 -46 -65 -23 -6 -25 -8
-9 -16 24 -14 22 -32 -3 -24 -18 6 -20 3 -14 -19 5 -20 2 -26 -10 -26 -19 0
-21 -11 -4 -28 10 -10 -2 -12 -55 -9 -37 1 -67 2 -67 0 0 -1 18 -12 40 -23 22
-11 40 -26 40 -32 0 -7 28 -39 62 -71 l62 -58 -54 6 c-30 3 -66 9 -80 11 -15
3 -21 2 -15 -4 20 -18 251 -188 292 -215 23 -15 49 -40 58 -57 l15 -30 48 48
c26 27 56 60 68 73 11 14 58 47 105 74 70 40 115 80 273 239 186 187 265 256
296 256 19 0 44 -27 88 -95 18 -27 30 -40 27 -27 -4 13 -1 30 7 39 10 12 10
17 1 20 -16 6 -5 72 16 97 15 18 15 18 -6 7 -13 -6 -30 -25 -38 -41 -18 -35
-45 -40 -45 -9 0 11 16 48 35 80 19 33 35 64 35 70 0 5 -26 9 -58 9 -65 0 -99
17 -89 44 6 15 17 17 85 12 l77 -5 -50 12 -50 13 -3 47 c-2 26 -7 47 -12 47
-4 0 -11 23 -15 50 -4 28 -11 50 -15 50 -5 0 -26 -20 -47 -45 -53 -64 -64 -60
-57 22 3 41 1 84 -7 111 -12 43 -11 44 17 68 16 13 34 23 40 24 6 0 24 13 40
30 16 16 39 30 52 30 16 0 22 6 22 24 0 22 5 24 73 30 39 4 100 7 135 7 50 1
62 4 62 17 0 14 2 14 13 -1 11 -15 25 -17 129 -11 64 4 122 10 128 14 9 6 7
15 -5 34 -13 20 -21 24 -30 16 -10 -8 -15 -8 -20 0 -4 7 -16 9 -27 7 -20 -6
-20 -5 1 17 29 31 27 36 -16 34 -22 -1 -58 8 -84 20 -26 12 -87 31 -135 43
-49 12 -138 36 -199 55 -142 43 -270 74 -306 74 -18 0 -59 -21 -111 -56z m234
-35 l33 -30 -31 15 c-34 16 -63 46 -45 46 6 0 25 -14 43 -31z m-118 -8 c13 -5
16 -10 8 -15 -11 -6 -52 9 -52 19 0 7 22 5 44 -4z m-119 -40 c-14 -13 -93 -26
-80 -13 11 11 38 19 70 21 12 1 15 -3 10 -8z m415 -21 c33 -25 19 -25 -22 0
-18 11 -26 20 -18 20 8 0 26 -9 40 -20z m90 -74 c0 -5 -12 1 -27 15 -16 13
-30 25 -32 26 -1 1 0 7 5 14 5 9 14 4 31 -17 12 -16 23 -33 23 -38z m74 47 c4
-10 13 -29 20 -43 19 -35 29 -70 19 -70 -11 0 -53 66 -53 84 0 8 -4 18 -10 21
-15 9 -12 25 4 25 7 0 17 -8 20 -17z m-120 -48 c3 -8 1 -15 -3 -15 -5 0 -11 7
-15 15 -3 8 -1 15 3 15 5 0 11 -7 15 -15z m-554 -20 c-5 -14 -7 -32 -3 -41 4
-12 2 -15 -8 -10 -8 3 -22 9 -32 12 -11 4 -16 13 -13 21 3 8 6 18 6 23 0 7 8
10 52 19 4 0 3 -10 -2 -24z m-86 -9 c-3 -8 -17 -13 -37 -11 -44 4 -44 4 -27
15 24 15 70 13 64 -4z m742 -33 c-7 -7 -26 7 -26 19 0 6 6 6 15 -2 9 -7 13
-15 11 -17z m-923 -45 c-3 -18 -10 -40 -14 -49 -10 -19 -46 -31 -55 -18 -8 14
-24 11 -24 -5 0 -8 -12 -17 -27 -21 -20 -5 -32 -1 -51 19 -25 24 -25 25 -4 19
13 -3 22 -1 22 6 0 6 9 11 20 11 11 0 20 3 20 8 0 4 19 8 43 8 23 1 45 2 48 3
4 1 10 12 13 26 9 37 17 31 9 -7z m331 17 c4 -11 -2 -15 -20 -15 -21 0 -23 2
-12 15 17 18 24 19 32 0z m76 -138 c0 -5 9 -20 20 -35 15 -18 17 -28 9 -33
-15 -9 -37 15 -88 91 -39 58 -40 63 -24 75 16 12 21 8 50 -38 18 -29 33 -56
33 -60z m-339 42 c5 -3 2 -14 -6 -25 -9 -12 -18 -15 -22 -9 -5 6 -14 10 -20
11 -42 3 -43 11 -6 55 l27 32 10 -29 c5 -16 13 -32 17 -35z m-278 7 c16 -15
24 -31 21 -43 -5 -19 18 -37 61 -46 11 -3 -5 -6 -35 -7 -84 -4 -84 -4 -98 -14
-14 -9 -64 32 -84 68 -14 26 16 49 55 42 19 -4 27 -1 27 9 0 22 24 18 53 -9z
m345 -68 c44 -66 45 -75 10 -92 l-31 -16 6 33 c4 29 3 33 -16 33 -16 -1 -21 4
-19 17 2 9 -2 17 -8 17 -14 0 -13 23 2 38 19 19 25 15 56 -30z m-288 -84 c0
-2 -7 -4 -15 -4 -8 0 -15 4 -15 10 0 5 7 7 15 4 8 -4 15 -8 15 -10z m588 -55
c-32 -20 -39 2 -10 34 17 19 17 19 20 -3 2 -13 -2 -27 -10 -31z m-728 -19 c0
-5 -5 -10 -11 -10 -5 0 -7 5 -4 10 3 6 8 10 11 10 2 0 4 -4 4 -10z m846 -103
c-16 -54 -55 -116 -56 -88 0 16 63 151 68 146 2 -2 -3 -28 -12 -58z m-846 23
c0 -13 -11 -13 -30 0 -12 8 -11 10 8 10 12 0 22 -4 22 -10z m732 -52 c-8 -8
-9 -4 -5 13 4 13 8 18 11 10 2 -7 -1 -18 -6 -23z m-682 18 c0 -9 -30 -14 -35
-6 -4 6 3 10 14 10 12 0 21 -2 21 -4z m546 -62 c-4 -9 -9 -15 -11 -12 -3 3 -3
13 1 22 4 9 9 15 11 12 3 -3 3 -13 -1 -22z m-541 -454 c-3 -5 -10 -10 -16 -10
-5 0 -9 5 -9 10 0 6 7 10 16 10 8 0 12 -4 9 -10z m-135 -40 c0 -5 -2 -10 -4
-10 -3 0 -8 5 -11 10 -3 6 -1 10 4 10 6 0 11 -4 11 -10z"/>
<path d="M12975 5970 c3 -5 8 -10 11 -10 2 0 4 5 4 10 0 6 -5 10 -11 10 -5 0
-7 -4 -4 -10z"/>
<path d="M13430 5960 c-17 -24 -36 -26 -44 -4 -3 8 -11 12 -17 8 -7 -4 -7 -9
-2 -13 5 -3 12 -14 16 -23 6 -18 37 -15 37 3 0 5 4 9 9 9 6 0 7 -16 4 -36 -6
-34 -5 -35 21 -28 19 4 27 2 32 -10 3 -9 11 -16 17 -16 6 0 19 -7 29 -17 17
-15 18 -15 18 1 0 14 6 12 39 -10 41 -27 73 -25 50 2 -6 8 -8 14 -3 14 5 0 1
7 -9 14 -12 10 -28 11 -53 6 -27 -6 -37 -4 -47 10 -7 10 -24 20 -37 22 -15 2
-26 11 -29 23 -2 11 -8 23 -15 27 -7 5 -4 12 9 22 15 12 16 15 5 16 -9 0 -22
-9 -30 -20z"/>
<path d="M13515 5969 c-4 -5 1 -12 10 -15 13 -6 14 -8 3 -15 -10 -7 -8 -13 9
-31 24 -24 44 -18 23 7 -11 13 -10 14 6 9 10 -4 30 -16 43 -26 29 -22 40 -17
34 16 -7 35 -39 62 -56 48 -10 -8 -20 -7 -40 3 -16 8 -29 10 -32 4z"/>
<path d="M12730 5957 c0 -19 10 -27 26 -20 11 4 12 9 3 19 -15 18 -29 18 -29
1z"/>
<path d="M12640 5950 c0 -5 7 -10 15 -10 8 0 15 5 15 10 0 6 -7 10 -15 10 -8
0 -15 -4 -15 -10z"/>
<path d="M13300 5956 c0 -2 7 -6 15 -10 8 -3 15 -1 15 4 0 6 -7 10 -15 10 -8
0 -15 -2 -15 -4z"/>
<path d="M12395 5920 c-3 -5 -1 -10 4 -10 6 0 11 5 11 10 0 6 -2 10 -4 10 -3
0 -8 -4 -11 -10z"/>
<path d="M13047 5923 c-2 -4 4 -16 13 -26 18 -18 19 -18 30 2 6 12 7 21 1 21
-5 0 -16 3 -24 6 -8 3 -17 2 -20 -3z"/>
<path d="M12180 5909 c0 -5 5 -7 10 -4 6 3 10 8 10 11 0 2 -4 4 -10 4 -5 0
-10 -5 -10 -11z"/>
<path d="M12830 5914 c0 -10 28 -34 39 -34 8 0 7 7 -1 20 -12 18 -38 28 -38
14z"/>
<path d="M13230 5910 c0 -5 7 -10 16 -10 8 0 12 5 9 10 -3 6 -10 10 -16 10 -5
0 -9 -4 -9 -10z"/>
<path d="M13326 5911 c-17 -7 -16 -9 11 -32 16 -14 28 -29 26 -35 -2 -6 6 -19
17 -29 11 -10 20 -13 20 -7 0 7 -4 12 -10 12 -5 0 -10 5 -10 10 0 16 22 12 36
-7 11 -15 13 -15 14 -3 0 33 -77 101 -104 91z"/>
<path d="M12648 5893 c7 -3 16 -2 19 1 4 3 -2 6 -13 5 -11 0 -14 -3 -6 -6z"/>
<path d="M13016 5891 c-3 -5 5 -16 19 -25 19 -12 25 -13 25 -4 0 17 -37 41
-44 29z"/>
<path d="M13110 5893 c1 -12 50 -45 50 -34 0 5 -7 17 -16 25 -16 17 -34 21
-34 9z"/>
<path d="M12095 5879 c-4 -6 -5 -12 -2 -15 2 -3 7 2 10 11 7 17 1 20 -8 4z"/>
<path d="M12710 5875 c0 -8 5 -15 10 -15 6 0 10 7 10 15 0 8 -4 15 -10 15 -5
0 -10 -7 -10 -15z"/>
<path d="M12940 5880 c0 -5 7 -10 15 -10 8 0 15 5 15 10 0 6 -7 10 -15 10 -8
0 -15 -4 -15 -10z"/>
<path d="M12130 5871 c0 -5 -3 -17 -6 -25 -5 -12 -2 -15 10 -10 17 7 22 44 6
44 -5 0 -10 -4 -10 -9z"/>
<path d="M12560 5870 c0 -5 6 -10 14 -10 8 0 16 -7 20 -15 8 -21 26 -19 26 4
0 19 -18 31 -46 31 -8 0 -14 -4 -14 -10z"/>
<path d="M12797 5863 c-10 -9 -9 -23 2 -23 5 0 11 7 15 15 5 15 -5 20 -17 8z"/>
<path d="M12844 5858 c3 -7 9 -21 12 -30 4 -10 10 -18 15 -18 13 0 11 34 -3
48 -16 16 -31 15 -24 0z"/>
<path d="M12218 5843 c-16 -8 -28 -23 -28 -33 0 -10 -4 -22 -10 -25 -5 -3 -10
-11 -10 -16 0 -17 41 11 50 35 5 13 16 26 24 29 9 4 16 11 16 17 0 13 -8 12
-42 -7z"/>
<path d="M12640 5850 c0 -5 5 -10 10 -10 6 0 10 5 10 10 0 6 -4 10 -10 10 -5
0 -10 -4 -10 -10z"/>
<path d="M12670 5849 c0 -7 8 -18 18 -25 14 -11 14 -15 3 -23 -9 -6 -10 -11
-2 -15 17 -11 23 17 12 47 -10 27 -31 37 -31 16z"/>
<path d="M12398 5833 c7 -3 16 -2 19 1 4 3 -2 6 -13 5 -11 0 -14 -3 -6 -6z"/>
<path d="M12747 5833 c-9 -9 -9 -33 1 -33 4 0 13 9 20 20 10 16 10 20 -1 20
-8 0 -17 -3 -20 -7z"/>
<path d="M12992 5824 c1 -9 9 -19 16 -22 9 -3 13 2 10 14 -1 9 -9 19 -16 22
-9 3 -13 -2 -10 -14z"/>
<path d="M12817 5810 c-3 -12 0 -20 7 -20 18 0 25 10 19 26 -7 20 -20 17 -26
-6z"/>
<path d="M13480 5804 c0 -14 3 -14 15 -4 8 7 15 14 15 16 0 2 -7 4 -15 4 -8 0
-15 -7 -15 -16z"/>
<path d="M13291 5790 c-22 -19 -22 -20 -3 -20 11 0 22 8 25 20 3 11 4 20 4 20
-1 -1 -13 -10 -26 -20z"/>
<path d="M13558 5803 c7 -3 16 -2 19 1 4 3 -2 6 -13 5 -11 0 -14 -3 -6 -6z"/>
<path d="M12920 5793 c0 -11 26 -43 36 -43 2 0 4 9 4 21 0 12 -4 18 -11 13 -6
-3 -15 0 -20 7 -6 9 -9 10 -9 2z"/>
<path d="M13336 5793 c-11 -11 -6 -23 9 -23 8 0 15 4 15 9 0 13 -16 22 -24 14z"/>
<path d="M12373 5775 c-15 -16 -16 -25 -5 -25 4 0 13 9 20 20 14 23 3 26 -15
5z"/>
<path d="M12537 5774 c6 -15 23 -19 23 -5 0 5 -7 11 -14 14 -10 4 -13 1 -9 -9z"/>
<path d="M12987 5783 c-12 -11 -8 -23 8 -23 8 0 15 7 15 15 0 16 -12 20 -23 8z"/>
<path d="M12717 5773 c-13 -13 -7 -21 13 -16 11 3 20 9 20 14 0 10 -24 12 -33
2z"/>
<path d="M12885 5760 c-3 -5 -1 -10 4 -10 6 0 11 5 11 10 0 6 -2 10 -4 10 -3
0 -8 -4 -11 -10z"/>
<path d="M12315 5730 c-3 -5 -1 -10 4 -10 6 0 11 5 11 10 0 6 -2 10 -4 10 -3
0 -8 -4 -11 -10z"/>
<path d="M11577 5593 c-10 -17 -18 -139 -10 -158 5 -13 10 10 14 70 6 90 5
103 -4 88z"/>
<path d="M10435 5380 c3 -5 11 -10 16 -10 6 0 7 5 4 10 -3 6 -11 10 -16 10 -6
0 -7 -4 -4 -10z"/>
<path d="M17011 4003 c-562 -2309 -958 -3936 -966 -3971 l-7 -32 656 0 656 0
0 2685 c0 1477 -1 2685 -3 2685 -2 0 -153 -615 -336 -1367z"/>
<path d="M10363 5280 c-35 -14 -28 -31 7 -19 16 6 27 15 24 20 -3 5 -6 9 -7 8
-1 0 -12 -4 -24 -9z"/>
<path d="M14022 5248 c-6 -6 -12 -19 -12 -27 0 -13 2 -13 16 1 9 9 15 21 13
27 -3 9 -8 8 -17 -1z"/>
<path d="M13215 5160 c-27 -4 -53 -5 -57 -3 -5 2 -43 0 -85 -6 -43 -6 -112
-13 -153 -16 -71 -6 -76 -8 -78 -31 -2 -22 1 -23 32 -18 19 3 37 1 40 -4 3 -5
42 -8 87 -5 63 3 85 1 98 -11 13 -12 29 -13 95 -5 61 8 81 7 87 -2 10 -18 21
28 17 72 -3 38 -9 40 -83 29z"/>
<path d="M13786 5120 c19 -38 30 -49 42 -46 12 4 29 -10 57 -47 61 -77 77
-126 82 -242 2 -55 6 -116 10 -135 8 -50 17 -20 33 105 l13 100 -32 60 c-37
70 -138 188 -155 182 -6 -3 -22 13 -36 34 -35 56 -44 48 -14 -11z"/>
<path d="M14040 5130 c0 -5 5 -10 10 -10 6 0 10 5 10 10 0 6 -4 10 -10 10 -5
0 -10 -4 -10 -10z"/>
<path d="M12575 5102 c-4 -4 -79 -8 -168 -8 -226 -2 -227 -2 -227 -18 0 -21
-19 -30 -35 -16 -20 17 -45 5 -45 -21 0 -11 -7 -37 -16 -55 -14 -29 -15 -39
-4 -62 l12 -27 16 33 c9 17 19 32 22 32 4 0 24 16 45 36 61 57 76 60 360 69
100 3 110 5 113 23 3 17 -3 20 -32 20 -19 0 -38 -3 -41 -6z"/>
<path d="M12685 5101 c-10 -17 12 -21 25 -6 10 12 10 15 -3 15 -9 0 -18 -4
-22 -9z"/>
<path d="M11872 5082 c-9 -6 -3 -16 20 -38 22 -20 29 -24 25 -11 -4 10 -7 27
-7 38 0 20 -16 24 -38 11z"/>
<path d="M11722 5055 c8 -19 14 -22 20 -13 14 22 9 38 -12 38 -17 0 -18 -3 -8
-25z"/>
<path d="M11850 4965 c0 -17 22 -45 35 -45 23 0 18 16 -10 34 -14 9 -25 14
-25 11z"/>
<path d="M12038 4923 c-11 -3 -18 -14 -18 -27 0 -12 -12 -33 -26 -47 -34 -31
-50 -64 -58 -117 -7 -50 4 -237 14 -225 4 4 12 68 19 141 13 133 24 172 72
250 12 17 19 31 17 31 -1 -1 -11 -3 -20 -6z"/>
<path d="M11860 4886 c0 -9 5 -16 10 -16 6 0 10 4 10 9 0 6 -4 13 -10 16 -5 3
-10 -1 -10 -9z"/>
<path d="M14045 4789 c-4 -12 -1 -27 7 -37 14 -17 58 -104 58 -115 0 -4 -6 -4
-14 -1 -20 8 -28 -11 -20 -51 4 -21 12 -35 21 -35 11 0 13 -13 11 -57 -3 -62
13 -88 23 -38 4 17 7 84 8 149 l1 119 -36 43 c-40 49 -50 53 -59 23z"/>
<path d="M10390 4776 c0 -2 9 -6 20 -9 11 -3 20 -1 20 4 0 5 -9 9 -20 9 -11 0
-20 -2 -20 -4z"/>
<path d="M12188 4667 c-49 -17 -58 -25 -58 -45 0 -19 4 -23 18 -17 33 15 108
12 197 -7 50 -10 119 -23 155 -28 36 -6 90 -18 120 -27 30 -9 66 -17 80 -18
14 0 35 -4 47 -8 12 -4 24 -4 27 2 7 11 -41 71 -57 71 -6 0 -18 6 -26 14 -9 8
-34 17 -56 20 -22 4 -51 9 -65 11 -14 3 -42 6 -63 6 -20 1 -40 5 -43 10 -3 5
-18 9 -33 9 -15 0 -32 5 -38 11 -9 9 -24 8 -62 -5 -60 -19 -67 -20 -52 -3 6 8
8 17 4 20 -10 11 -34 7 -95 -16z"/>
<path d="M13602 4674 c-12 -8 -26 -13 -31 -10 -5 3 -12 -1 -15 -10 -5 -12 -15
-14 -44 -10 -32 6 -38 4 -47 -16 -20 -44 -9 -58 43 -52 26 3 63 11 82 16 19 6
66 10 105 10 86 -2 109 9 80 36 -19 18 -108 52 -137 52 -8 0 -24 -7 -36 -16z"/>
<path d="M13269 4616 c-105 -62 -143 -126 -169 -285 -14 -86 -9 -96 59 -107
35 -6 42 -4 36 6 -4 7 -10 32 -12 56 -3 34 1 48 21 71 26 30 44 27 27 -5 -6
-12 -11 -28 -11 -38 0 -16 1 -16 19 0 10 9 35 20 55 23 36 6 47 18 24 25 -9 3
-8 11 4 30 14 21 15 41 10 126 -4 56 -12 105 -17 110 -6 5 -24 1 -46 -12z
m-129 -356 c0 -5 -4 -10 -10 -10 -5 0 -10 5 -10 10 0 6 5 10 10 10 6 0 10 -4
10 -10z"/>
<path d="M13410 4601 c0 -41 14 -62 23 -37 3 8 4 22 2 32 -2 11 -4 25 -4 32
-1 6 -5 12 -11 12 -5 0 -10 -18 -10 -39z"/>
<path d="M14034 4579 c-22 -11 -49 -107 -34 -123 18 -19 67 59 69 112 1 24 -4
26 -35 11z"/>
<path d="M12357 4480 c-72 -12 -150 -45 -145 -62 3 -7 21 -14 42 -16 21 -2 40
-10 43 -18 3 -8 17 -14 31 -14 24 0 24 1 9 18 -24 26 -21 41 9 52 41 16 52 12
64 -26 8 -24 22 -40 46 -51 31 -16 37 -15 69 0 20 9 38 24 41 32 8 21 36 19
56 -4 15 -18 14 -19 -9 -30 -13 -6 -32 -11 -42 -11 -10 0 -21 -3 -25 -7 -4 -5
-13 -8 -18 -8 -6 0 -13 -6 -16 -13 -3 -9 3 -13 18 -10 32 4 35 -16 5 -32 -14
-7 -24 -18 -22 -24 6 -15 89 -11 122 7 l28 14 -22 22 c-22 22 -20 24 16 21 49
-4 55 11 23 67 -22 38 -41 56 -76 73 -54 26 -154 34 -247 20z m105 -42 c-9 -9
-15 -9 -24 0 -9 9 -7 12 12 12 19 0 21 -3 12 -12z m128 -128 c0 -5 -4 -10 -10
-10 -5 0 -10 5 -10 10 0 6 5 10 10 10 6 0 10 -4 10 -10z"/>
<path d="M13414 4479 c-3 -5 -14 -9 -25 -9 -10 0 -19 -7 -19 -15 0 -18 17 -20
23 -2 3 9 7 9 17 0 14 -13 5 -33 -16 -33 -21 0 -17 -22 10 -47 21 -20 36 -22
88 -14 12 2 38 58 38 81 0 24 11 25 50 5 21 -11 30 -23 30 -40 0 -14 6 -25 13
-25 31 0 87 22 87 35 0 18 -27 44 -59 57 -33 13 -229 19 -237 7z"/>
<path d="M11902 4468 c-7 -7 -12 -17 -12 -24 0 -7 -14 -18 -30 -26 -37 -16
-39 -53 -3 -52 18 0 20 -3 12 -17 -5 -10 -9 -31 -9 -48 0 -24 4 -31 19 -31 20
0 31 18 31 54 0 13 3 26 6 29 10 9 14 127 5 127 -4 0 -12 -5 -19 -12z"/>
<path d="M12370 4350 c0 -5 5 -10 11 -10 5 0 7 5 4 10 -3 6 -8 10 -11 10 -2 0
-4 -4 -4 -10z"/>
<path d="M12440 4319 c0 -5 5 -7 10 -4 6 3 10 8 10 11 0 2 -4 4 -10 4 -5 0
-10 -5 -10 -11z"/>
<path d="M13235 4210 c27 -12 43 -12 25 0 -8 5 -22 9 -30 9 -10 0 -8 -3 5 -9z"/>
<path d="M13014 4191 c4 -5 28 -12 54 -16 26 -3 54 -10 61 -15 20 -12 6 -38
-21 -42 -27 -4 177 -58 220 -58 26 0 28 3 24 30 -3 24 0 32 19 39 28 11 14 14
-56 12 -27 -2 -63 3 -80 9 -26 11 -194 49 -218 50 -5 0 -6 -4 -3 -9z m174 -62
c12 -18 11 -20 -5 -17 -10 2 -19 11 -21 21 -5 23 10 21 26 -4z m76 -8 c3 -5
-1 -14 -9 -21 -8 -7 -15 -10 -15 -7 0 3 -3 12 -6 21 -7 17 20 23 30 7z"/>
<path d="M12755 4150 c-3 -5 -2 -10 4 -10 5 0 13 5 16 10 3 6 2 10 -4 10 -5 0
-13 -4 -16 -10z"/>
<path d="M12640 4110 c-13 -8 -13 -10 2 -10 9 0 20 5 23 10 8 13 -5 13 -25 0z"/>
<path d="M12555 4070 c-3 -6 1 -7 9 -4 18 7 21 14 7 14 -6 0 -13 -4 -16 -10z"/>
<path d="M13635 4070 c11 -5 27 -9 35 -9 9 0 8 4 -5 9 -11 5 -27 9 -35 9 -9 0
-8 -4 5 -9z"/>
<path d="M12370 4060 c-18 -12 -2 -12 25 0 13 6 15 9 5 9 -8 0 -22 -4 -30 -9z"/>
<path d="M13690 4055 c0 -2 10 -10 23 -16 20 -11 21 -11 8 4 -13 16 -31 23
-31 12z"/>
<path d="M12255 4021 c-37 -22 -72 -61 -57 -61 7 0 12 5 12 10 0 6 21 24 47
40 26 17 43 30 37 30 -5 0 -22 -8 -39 -19z"/>
<path d="M13095 3997 c-5 -24 -1 -45 11 -68 17 -32 19 -33 22 -10 2 13 -1 28
-7 34 -13 13 -14 37 -2 37 5 0 12 -11 15 -24 4 -19 11 -23 27 -19 11 3 26 14
32 24 15 25 42 26 32 2 -12 -32 -33 -103 -30 -103 2 0 15 4 29 10 23 8 26 15
26 54 0 44 0 44 26 33 22 -11 25 -17 21 -49 -4 -29 -2 -38 10 -38 10 0 12 -6
8 -20 -10 -31 2 -24 20 12 13 27 13 38 4 61 -9 22 -9 31 0 36 10 7 -127 46
-206 58 -30 5 -32 3 -38 -30z m85 -23 c0 -8 -4 -12 -10 -9 -5 3 -10 10 -10 16
0 5 5 9 10 9 6 0 10 -7 10 -16z"/>
<path d="M13754 4008 c3 -7 9 -21 12 -30 4 -10 10 -18 15 -18 15 0 10 27 -7
44 -19 19 -28 21 -20 4z"/>
<path d="M13040 3950 c0 -8 5 -22 10 -30 9 -13 10 -13 10 0 0 8 -5 22 -10 30
-9 13 -10 13 -10 0z"/>
<path d="M13820 3788 c0 -36 -6 -75 -15 -92 -18 -34 -19 -52 -3 -62 6 -4 8 -3
4 4 -3 6 4 37 16 69 26 69 32 143 12 143 -10 0 -14 -17 -14 -62z"/>
<path d="M13342 3819 c-6 -13 -21 -39 -32 -58 -24 -43 -13 -65 25 -47 32 14
37 30 27 85 -7 43 -8 44 -20 20z"/>
<path d="M12130 3816 c0 -9 5 -16 10 -16 6 0 10 4 10 9 0 6 -4 13 -10 16 -5 3
-10 -1 -10 -9z"/>
<path d="M12142 3715 c0 -16 2 -22 5 -12 2 9 2 23 0 30 -3 6 -5 -1 -5 -18z"/>
<path d="M13237 3712 c-32 -34 -35 -49 -6 -28 12 8 28 12 35 9 15 -6 18 14 6
35 -6 9 -15 5 -35 -16z"/>
<path d="M13356 3632 c-4 -12 -16 -27 -27 -32 -10 -6 -19 -17 -19 -24 0 -8 -7
-19 -15 -26 -20 -16 -9 -32 17 -24 11 3 26 7 33 8 21 3 45 27 45 45 -1 9 -7
30 -14 46 -12 29 -13 29 -20 7z"/>
<path d="M13236 3523 c-11 -11 -6 -23 9 -23 8 0 15 4 15 9 0 13 -16 22 -24 14z"/>
<path d="M13476 3464 c-9 -22 -8 -24 9 -24 8 0 15 9 15 20 0 24 -15 27 -24 4z"/>
<path d="M13406 3452 c-16 -2 -45 -14 -65 -27 -20 -13 -52 -26 -71 -30 -47
-10 -128 -46 -113 -52 6 -2 54 7 107 21 53 15 104 26 113 26 24 1 74 43 65 55
-4 6 -20 9 -36 7z"/>
<path d="M13375 3360 c-4 -6 -17 -15 -29 -20 -17 -8 -13 -9 19 -7 27 1 40 7
40 16 0 18 -21 26 -30 11z"/>
<path d="M13023 3338 c-18 -6 -33 -15 -33 -21 0 -12 84 0 125 18 l30 13 -45 0
c-25 0 -60 -5 -77 -10z"/>
<path d="M13280 3320 c0 -13 11 -13 30 0 12 8 11 10 -7 10 -13 0 -23 -4 -23
-10z"/>
<path d="M12396 3295 c-9 -13 -16 -31 -16 -40 0 -8 -4 -15 -9 -15 -11 0 10
-62 28 -84 17 -20 15 -22 -31 -30 -31 -6 -38 -4 -38 9 0 11 -7 15 -22 13 -19
-2 -23 -9 -23 -40 0 -49 -12 -58 -23 -17 -7 29 -13 34 -41 37 -60 6 -56 -13
13 -56 50 -32 72 -54 99 -99 l33 -58 155 -3 c190 -4 221 1 217 31 -1 12 2 23
7 24 6 1 9 -9 8 -23 -2 -32 34 -34 40 -1 l4 22 8 -23 c7 -21 14 -23 54 -22
100 5 211 0 211 -10 0 -5 -10 -10 -22 -9 -13 0 -39 -4 -58 -9 l-35 -9 40 -8
c52 -10 58 -14 45 -30 -7 -9 -8 -26 0 -58 11 -51 5 -77 -17 -77 -8 0 -11 4 -8
10 3 5 -1 22 -8 37 -9 18 -11 36 -6 48 12 31 11 33 -26 37 -43 5 -59 -10 -47
-43 5 -13 8 -40 7 -59 -2 -32 -7 -37 -33 -31 -4 0 -9 27 -10 58 -2 31 -5 60
-7 63 -5 8 -364 2 -415 -6 l-35 -6 50 -45 c28 -25 49 -51 48 -57 -2 -8 31 -11
105 -9 59 0 114 -3 122 -8 9 -5 -34 -9 -112 -9 -77 0 -129 -4 -133 -10 -9 -15
13 -107 41 -165 13 -28 24 -61 24 -73 0 -30 16 -60 48 -87 l25 -22 -27 -56
c-43 -87 -44 -124 -7 -203 17 -36 31 -71 31 -76 0 -5 11 -24 24 -41 22 -28 41
-62 107 -185 27 -51 36 -59 149 -139 58 -40 126 -90 151 -111 26 -20 74 -54
108 -75 41 -25 67 -49 75 -68 7 -17 27 -39 44 -49 38 -23 39 -31 11 -69 -40
-54 12 -71 71 -23 19 15 55 36 80 47 25 10 50 24 55 30 6 6 23 20 38 30 15 10
35 31 43 46 8 16 29 36 47 45 114 58 332 248 421 367 34 46 47 75 27 63 -11
-7 -32 68 -32 114 0 88 11 193 22 206 12 15 4 64 -10 64 -4 0 -25 -16 -45 -35
-40 -38 -52 -42 -59 -22 -2 7 -8 8 -13 3 -5 -5 -4 -11 4 -13 6 -3 12 -16 12
-31 0 -78 -49 70 -113 341 -6 26 -15 47 -19 47 -4 0 -8 7 -8 16 0 9 -9 28 -19
43 -11 15 -19 42 -18 61 0 19 -7 56 -18 83 -21 55 -23 55 -151 30 -46 -9 -88
-13 -92 -8 -4 4 -1 10 6 12 7 3 12 24 12 54 0 43 -3 51 -24 59 -25 9 -96 3
-96 -9 0 -7 38 -192 47 -231 6 -23 4 -22 -48 15 -30 22 -94 60 -143 85 -49 25
-91 51 -93 57 -3 7 19 16 57 24 67 13 71 16 63 47 -6 24 -28 30 -36 10 -3 -7
-6 -3 -6 9 -1 16 6 23 27 26 22 3 20 4 -10 6 -28 1 -38 -3 -38 -14 0 -17 -21
-20 -35 -6 -6 5 -19 11 -30 13 -11 3 7 8 40 12 33 4 73 12 89 17 16 5 51 9 78
9 l49 0 -7 35 c-4 22 -2 35 5 35 6 0 8 6 5 13 -2 7 7 24 20 36 20 18 27 21 30
10 2 -8 9 -27 14 -44 9 -29 10 -29 17 20 4 28 11 52 14 55 4 3 12 17 18 33 9
19 20 27 37 27 20 0 23 -4 18 -22 -3 -12 -7 -17 -10 -10 -6 19 -22 14 -22 -8
0 -10 -7 -23 -16 -28 -9 -5 -15 -15 -12 -23 3 -10 12 -6 32 14 15 15 31 25 35
22 10 -6 23 79 15 100 -7 17 -24 20 -24 4 0 -5 -4 -7 -10 -4 -5 3 -10 11 -10
16 0 6 4 8 9 4 19 -11 23 17 5 36 -23 25 -29 24 -75 -12 -21 -17 -39 -26 -39
-20 0 6 -4 11 -10 11 -5 0 -10 -15 -10 -34 0 -81 -30 -89 -48 -13 -6 29 -12
62 -12 74 0 36 -17 36 -79 0 -32 -19 -74 -38 -92 -42 -19 -4 -38 -10 -43 -13
-9 -5 -36 -9 -101 -16 -16 -1 -44 -10 -62 -19 -18 -10 -60 -18 -102 -19 -39
-2 -71 -6 -71 -10 0 -5 -16 -8 -36 -8 -28 0 -35 -3 -32 -17 3 -14 13 -18 43
-17 l39 2 -22 -19 c-29 -23 -48 -16 -90 33 -19 21 -39 38 -47 38 -7 0 -18 7
-25 15 -7 8 -21 15 -32 15 -11 0 -70 25 -132 55 -61 30 -115 55 -118 55 -3 0
-13 -11 -22 -25z m44 -14 c0 -5 -7 -11 -15 -15 -15 -5 -20 5 -8 17 9 10 23 9
23 -2z m17 -57 c-3 -3 -12 -4 -19 -1 -8 3 -5 6 6 6 11 1 17 -2 13 -5z m98 -26
c24 -18 44 -36 45 -39 0 -3 -6 -14 -14 -24 -14 -19 -15 -19 -26 6 -6 13 -21
29 -32 34 -23 11 -45 55 -27 55 5 0 30 -15 54 -32z m460 -59 c-4 -5 -13 -9
-22 -9 -13 0 -13 3 -3 15 13 15 35 11 25 -6z m475 -22 c0 -5 -4 -5 -10 -2 -5
3 -10 14 -10 23 0 15 2 15 10 2 5 -8 10 -19 10 -23z m-535 3 c3 -5 -3 -10 -14
-10 -11 0 -23 5 -26 10 -3 6 3 10 14 10 11 0 23 -4 26 -10z m-396 -16 c2 -2
-1 -10 -8 -18 -10 -12 -16 -12 -41 1 -42 21 -38 35 8 27 20 -4 39 -8 41 -10z
m351 -9 c0 -8 -7 -15 -15 -15 -8 0 -15 -4 -15 -10 0 -5 -7 -10 -15 -10 -8 0
-15 5 -15 10 0 6 7 10 15 10 8 0 15 7 15 15 0 8 7 15 15 15 8 0 15 -7 15 -15z
m-310 -20 c0 -17 -4 -23 -15 -19 -11 5 -12 11 -4 25 13 26 19 24 19 -6z m120
-126 c0 -5 -7 -9 -15 -9 -9 0 -12 6 -9 15 6 15 24 11 24 -6z m-80 -219 c0 -5
-4 -10 -9 -10 -6 0 -13 5 -16 10 -3 6 1 10 9 10 9 0 16 -4 16 -10z m428 -378
c6 -18 -15 -14 -22 4 -4 10 -1 14 6 12 6 -2 14 -10 16 -16z m-43 -43 c-22 -4
-53 -8 -70 -7 l-30 0 30 8 c17 4 48 8 70 8 l40 0 -40 -9z m-22 -65 c-3 -9 0
-20 8 -25 8 -5 9 -9 3 -9 -6 0 -20 11 -32 25 l-22 25 25 0 c18 0 23 -4 18 -16z
m62 -24 c-3 -5 -14 -10 -23 -10 -15 0 -15 2 -2 10 20 13 33 13 25 0z m-61 -86
c-4 -15 -13 -24 -25 -24 -11 0 -16 5 -13 13 3 8 0 33 -5 57 l-10 43 30 -32
c22 -24 28 -38 23 -57z m-129 -75 c-32 -4 -54 -2 -62 5 -9 8 4 10 50 7 l62 -5
-50 -7z m1185 -89 c0 -5 -4 -10 -10 -10 -5 0 -10 5 -10 10 0 6 5 10 10 10 6 0
10 -4 10 -10z m-520 -267 c0 -33 -44 -98 -68 -101 -13 -2 -27 -14 -32 -28 -5
-13 -12 -24 -15 -24 -13 0 -2 22 40 83 25 37 45 71 45 77 0 5 7 10 15 10 8 0
15 -8 15 -17z m185 -2 c-12 -11 -124 -100 -145 -115 -8 -6 -6 0 5 13 19 23
134 111 144 111 3 0 1 -4 -4 -9z m166 -59 c-12 -9 -42 -33 -65 -53 -22 -20
-51 -42 -64 -48 -12 -7 -20 -17 -16 -23 4 -7 3 -8 -4 -4 -6 4 -25 -3 -42 -15
-39 -29 -48 -19 -21 24 23 37 47 53 54 34 2 -6 28 6 63 29 81 56 108 73 114
73 3 0 -6 -8 -19 -17z m-196 -22 c-3 -5 -1 -10 5 -10 24 0 -76 -107 -129 -138
-31 -17 -55 -38 -53 -45 2 -6 0 -9 -4 -5 -4 4 -26 -7 -49 -26 -37 -31 -114
-71 -121 -63 -2 1 43 36 99 77 109 79 197 157 197 172 0 11 41 47 53 48 5 0 5
-4 2 -10z m-235 -154 c0 -2 -12 -11 -27 -20 l-28 -17 24 20 c23 21 31 25 31
17z m100 -26 c-8 -5 -19 -10 -25 -10 -5 0 -3 5 5 10 8 5 20 10 25 10 6 0 3 -5
-5 -10z m5 -50 c-3 -5 -16 -15 -28 -21 -21 -10 -21 -9 2 10 25 23 36 27 26 11z
m-109 -65 c-26 -19 -42 -19 -26 0 7 8 20 15 29 15 13 -1 13 -3 -3 -15z"/>
<path d="M13153 3296 c-35 -7 -66 -16 -70 -19 -12 -12 61 -6 101 8 22 8 43 12
47 9 4 -2 10 0 14 6 8 12 -12 12 -92 -4z"/>
<path d="M13593 3010 c-13 -5 -23 -12 -23 -15 0 -8 73 6 85 16 12 12 -33 11
-62 -1z"/>
<path d="M13375 2941 c-8 -14 10 -22 30 -15 13 5 14 8 3 15 -17 11 -26 11 -33
0z"/>
<path d="M13367 2893 c-14 -13 -6 -33 13 -33 13 0 20 7 20 20 0 19 -20 27 -33
13z"/>
<path d="M13650 2881 c35 -20 60 -23 60 -7 0 12 -10 16 -37 16 -26 -1 -33 -3
-23 -9z"/>
<path d="M14145 2720 c-3 -5 1 -10 10 -10 9 0 13 5 10 10 -3 6 -8 10 -10 10
-2 0 -7 -4 -10 -10z"/>
<path d="M10640 2598 c0 -7 5 -20 10 -28 8 -12 10 -9 10 13 0 15 -4 27 -10 27
-5 0 -10 -6 -10 -12z"/>
<path d="M10640 2527 c1 -7 7 -25 15 -42 l13 -30 1 36 c1 24 -4 39 -14 43 -8
3 -15 0 -15 -7z"/>
<path d="M10294 2374 c3 -9 6 -18 6 -20 0 -2 12 -4 27 -4 25 0 26 0 8 20 -22
24 -50 27 -41 4z"/>
<path d="M10366 2315 c7 -17 74 -58 82 -50 7 6 -26 38 -55 54 -28 15 -34 14
-27 -4z"/>
<path d="M13990 2320 c-8 -5 -11 -12 -7 -16 4 -4 13 -2 19 4 15 15 7 24 -12
12z"/>
<path d="M13955 2253 c3 -8 5 -17 5 -19 0 -3 5 -2 10 1 16 10 12 32 -5 32 -10
0 -14 -6 -10 -14z"/>
<path d="M14856 1364 c-3 -9 -6 -40 -6 -70 0 -49 2 -54 18 -46 9 5 23 7 30 5
8 -3 12 7 12 34 0 21 -4 33 -8 27 -12 -18 -42 -25 -42 -9 0 7 5 17 11 21 8 4
7 9 -2 16 -11 7 -11 11 -1 15 14 5 16 23 3 23 -5 0 -12 -7 -15 -16z"/>
<path d="M15076 1166 c-46 -54 -65 -96 -28 -63 10 10 23 17 28 17 5 0 23 11
39 25 23 19 26 24 13 25 -21 0 -23 11 -6 28 6 6 9 14 6 17 -3 3 -26 -19 -52
-49z"/>
<path d="M15156 945 c-15 -8 -33 -15 -38 -15 -5 0 -23 -9 -38 -20 -16 -11 -35
-17 -44 -14 -24 9 -20 -1 21 -57 l38 -50 28 33 c15 18 41 52 58 75 16 23 37
47 47 52 29 17 -38 13 -72 -4z"/>
</g>
</svg>
