<?xml version="1.0" standalone="no"?>
<!DOCTYPE svg PUBLIC "-//W3C//DTD SVG 20010904//EN"
 "http://www.w3.org/TR/2001/REC-SVG-20010904/DTD/svg10.dtd">
<svg version="1.0" xmlns="http://www.w3.org/2000/svg"
 width="1735.000000pt" height="609.000000pt" viewBox="0 0 1735.000000 609.000000"
 preserveAspectRatio="xMidYMid meet">

<g transform="translate(0.000000,609.000000) scale(0.100000,-0.100000)"
fill="#000000" stroke="none">
<path d="M0 3045 l0 -3045 4113 0 4112 0 734 3018 c404 1659 737 3029 739
3045 l4 27 -4851 0 -4851 0 0 -3045z"/>
<path d="M17265 5518 c-87 -67 -157 -116 -237 -164 -35 -21 -81 -53 -102 -71
-22 -18 -45 -33 -51 -33 -6 0 -18 -8 -27 -17 -25 -27 -46 -43 -57 -43 -17 0
-6 -49 14 -58 21 -10 85 -5 85 7 0 3 26 8 58 9 83 6 96 7 109 15 6 4 18 4 27
1 9 -3 31 1 49 9 36 17 157 22 157 6 0 -35 -56 -228 -71 -245 -11 -11 -19 -23
-19 -27 0 -10 -72 -77 -83 -77 -5 0 -7 -7 -3 -15 3 -8 0 -15 -5 -15 -15 0
-143 -130 -152 -154 -4 -9 -11 -15 -16 -11 -5 3 -12 -4 -16 -15 -3 -11 -11
-20 -17 -20 -6 0 -8 -9 -5 -20 3 -12 -1 -24 -11 -30 -10 -5 -12 -10 -4 -10 6
0 12 -5 12 -11 0 -5 -4 -7 -10 -4 -6 3 -10 -5 -10 -19 0 -14 -7 -29 -16 -34
-9 -5 -15 -15 -12 -23 3 -8 -1 -20 -8 -27 -7 -7 -11 -19 -8 -27 4 -8 1 -15 -5
-15 -6 0 -10 -3 -10 -7 4 -22 -2 -33 -13 -27 -10 5 -10 4 -2 -5 13 -14 7 -51
-7 -51 -5 0 -8 -5 -6 -12 1 -7 -4 -12 -10 -13 -15 0 -47 -44 -39 -52 3 -4 6
-1 6 6 0 7 5 9 12 5 8 -5 7 -10 -4 -18 -8 -6 -17 -19 -21 -30 -4 -10 -13 -16
-22 -13 -9 4 -12 1 -9 -8 5 -13 -9 -35 -50 -78 -13 -14 -16 -22 -8 -25 7 -2
12 -8 12 -14 0 -5 -9 -6 -20 -3 -15 5 -20 2 -20 -13 0 -11 -8 -23 -17 -26 -14
-6 -15 -9 -4 -15 11 -7 9 -13 -8 -30 -11 -11 -26 -21 -31 -21 -6 0 -10 -8 -8
-17 2 -12 -3 -18 -15 -17 -15 2 -16 -1 -5 -14 11 -13 10 -14 -2 -10 -8 2 -21
-1 -28 -9 -8 -7 -18 -10 -23 -7 -6 3 -9 -2 -7 -12 2 -13 -3 -19 -14 -18 -10 1
-18 -4 -18 -12 0 -8 -9 -14 -20 -14 -13 0 -18 -5 -14 -15 4 -9 0 -15 -10 -15
-9 0 -16 -7 -16 -15 0 -18 -21 -20 -40 -2 -11 9 -11 8 0 -7 13 -16 13 -20 1
-24 -7 -2 -20 -12 -29 -22 -8 -10 -21 -16 -29 -13 -8 3 -13 2 -12 -3 4 -21 -2
-25 -17 -13 -15 12 -16 11 -10 -9 6 -17 4 -21 -8 -16 -11 4 -16 1 -16 -10 0
-9 -6 -16 -14 -16 -7 0 -16 -13 -19 -30 -4 -17 -13 -30 -21 -30 -8 0 -22 -7
-30 -16 -10 -10 -24 -13 -38 -9 l-23 6 21 -18 c11 -10 19 -25 16 -33 -2 -8 10
0 27 19 17 19 34 32 37 29 3 -3 -2 -13 -11 -21 -10 -10 -12 -18 -5 -22 7 -4 8
-11 1 -18 -5 -7 -9 -24 -8 -40 2 -23 4 -25 13 -12 9 12 13 13 21 3 17 -22 24
-51 15 -57 -5 -3 1 -29 14 -57 13 -28 24 -70 25 -95 1 -24 8 -54 15 -66 17
-28 17 -33 1 -33 -9 0 -11 -12 -9 -40 4 -39 -10 -55 -22 -25 -3 8 -12 15 -21
15 -22 0 -143 125 -137 143 1 4 -3 7 -9 7 -6 0 -9 6 -6 14 3 7 2 17 -3 22 -4
5 -11 28 -14 52 -4 32 -3 41 7 36 8 -5 7 -2 -1 9 -12 14 -12 19 1 32 8 8 13
24 10 35 -3 12 0 20 7 20 9 0 9 4 3 13 -16 19 -25 67 -13 67 5 0 10 -9 10 -19
0 -23 16 -36 25 -21 3 5 2 10 -4 10 -5 0 -13 15 -17 33 -4 17 -9 27 -11 20 -2
-7 -11 -9 -19 -6 -8 3 -14 1 -14 -3 0 -5 -4 -15 -9 -23 -7 -11 -14 -10 -37 5
-15 11 -25 13 -21 6 6 -8 -1 -15 -17 -22 -14 -5 -26 -14 -26 -19 0 -10 -38
-24 -57 -22 -7 1 -13 -6 -13 -15 0 -11 -6 -15 -19 -11 -12 3 -22 -1 -25 -9 -3
-8 -15 -14 -26 -14 -11 0 -20 -5 -20 -11 0 -6 -6 -9 -14 -6 -17 7 -76 -13 -76
-25 0 -4 -7 -8 -15 -8 -8 0 -22 -12 -32 -27 -10 -16 -21 -30 -25 -34 -4 -3
-17 -41 -29 -85 -29 -113 -29 -429 1 -574 28 -138 52 -227 78 -292 16 -40 32
-99 36 -132 4 -32 14 -77 23 -100 28 -80 41 -233 27 -342 -15 -117 -44 -231
-72 -277 -10 -18 -27 -58 -37 -88 -10 -30 -29 -74 -42 -98 -12 -24 -23 -49
-23 -55 0 -7 -9 -29 -20 -51 -11 -22 -20 -40 -20 -41 0 -9 66 -11 76 -3 11 9
14 6 15 -17 1 -16 3 -21 6 -12 2 9 13 16 24 15 11 -1 17 -7 15 -13 -2 -6 7
-17 20 -23 31 -14 47 -14 39 -1 -3 6 -1 10 4 10 6 0 11 -15 11 -34 0 -29 3
-33 20 -29 11 3 20 9 20 13 0 4 11 8 25 8 21 0 24 -4 19 -27 -4 -22 -4 -23 6
-8 15 23 33 22 25 -3 -5 -14 2 -29 24 -50 29 -30 71 -40 71 -18 0 6 7 3 15 -8
14 -19 14 -19 15 1 1 19 2 19 20 -4 13 -15 27 -22 40 -18 11 3 23 1 26 -4 4
-6 11 -6 19 1 11 9 12 7 8 -9 -4 -17 0 -21 18 -22 37 -2 53 2 61 14 6 9 8 9 8
0 0 -14 30 -6 43 11 5 7 7 3 5 -9 -2 -14 2 -20 14 -19 9 1 19 -4 21 -10 2 -6
-42 -204 -99 -441 -57 -237 -103 -436 -104 -442 0 -10 137 -13 655 -13 l655 0
0 2785 c0 1532 -4 2785 -9 2785 -4 0 -39 -24 -76 -52z"/>
<path d="M15005 4061 c-3 -6 -15 -11 -26 -11 -10 0 -19 -4 -19 -10 0 -5 -6
-10 -12 -10 -7 0 -26 -21 -43 -48 -16 -26 -55 -76 -86 -112 -59 -69 -76 -96
-89 -141 -7 -25 -5 -30 20 -41 16 -7 27 -15 24 -19 -2 -4 3 -15 12 -23 14 -15
13 -16 -10 -16 -29 0 -43 -17 -27 -33 16 -16 14 -37 -4 -37 -8 0 -15 -7 -15
-15 0 -8 6 -15 13 -15 7 0 21 -9 31 -21 14 -17 18 -39 18 -102 0 -45 3 -86 7
-92 17 -22 18 -57 4 -108 -8 -28 -21 -74 -29 -100 -7 -26 -30 -75 -49 -109
-20 -33 -34 -63 -31 -66 3 -2 24 10 46 29 22 19 58 50 81 69 115 97 187 287
157 418 -15 67 -15 218 1 291 6 29 11 94 11 146 0 64 5 108 16 135 15 38 15
65 -1 41z"/>
<path d="M11660 3844 c0 -8 7 -14 15 -14 8 0 15 -4 15 -10 0 -11 78 -90 90
-90 4 0 13 -14 19 -32 6 -18 20 -41 30 -53 10 -11 21 -38 24 -59 8 -51 73
-111 131 -121 21 -4 48 -17 60 -30 20 -21 64 -49 78 -50 4 0 13 -6 20 -12 6
-7 18 -13 25 -13 7 0 13 -4 13 -9 0 -5 9 -13 20 -16 11 -4 36 -27 56 -53 19
-26 52 -56 72 -66 94 -48 133 -97 125 -154 -5 -28 0 -39 26 -66 17 -17 34 -46
37 -64 5 -25 11 -32 30 -32 26 0 29 -7 14 -44 -6 -16 -6 -27 0 -31 6 -4 10
-13 10 -22 0 -12 -3 -13 -14 -3 -12 9 -16 6 -21 -23 -10 -52 1 -79 28 -71 30
9 37 23 35 68 -1 24 3 41 10 44 7 2 12 17 12 33 0 23 3 27 18 22 25 -10 51
-45 52 -69 0 -11 10 -29 21 -40 l22 -19 -7 30 -7 30 24 -27 c13 -16 29 -28 36
-28 6 0 14 -18 17 -40 4 -22 9 -40 13 -40 17 0 43 -70 36 -99 -8 -38 2 -39 42
-3 32 29 63 81 63 107 0 9 10 30 23 46 20 29 22 41 22 179 0 100 -4 153 -12
161 -6 6 -32 12 -57 14 -25 1 -52 8 -61 15 -8 7 -15 9 -15 4 0 -5 -5 -1 -11 9
-5 9 -14 17 -18 17 -5 0 -8 -8 -7 -17 1 -12 -6 -18 -19 -18 -11 0 -24 -3 -30
-6 -17 -9 -64 -9 -70 1 -3 5 -12 7 -20 3 -17 -6 -45 11 -92 54 -17 16 -50 35
-72 42 -23 6 -56 24 -74 39 -17 15 -68 54 -112 87 -44 32 -110 84 -146 115
-36 31 -91 71 -122 89 -34 19 -70 51 -92 81 -20 27 -86 95 -148 153 -108 100
-157 132 -157 101z m1190 -1174 c0 -5 -2 -10 -4 -10 -3 0 -8 5 -11 10 -3 6 -1
10 4 10 6 0 11 -4 11 -10z"/>
<path d="M11070 3833 c0 -6 8 -17 18 -24 16 -13 16 -13 2 6 -8 11 -16 22 -17
24 -2 2 -3 0 -3 -6z"/>
<path d="M11123 3715 c-5 -16 22 -55 39 -55 12 0 9 33 -6 53 -16 21 -25 22
-33 2z"/>
<path d="M11172 3585 c0 -25 3 -45 7 -45 3 0 12 -12 19 -27 18 -40 31 -55 85
-96 41 -31 52 -35 69 -26 18 10 20 9 15 -5 -4 -9 -2 -16 3 -16 25 0 0 53 -42
88 -16 13 -36 39 -46 56 -34 61 -77 115 -94 116 -14 0 -17 -9 -16 -45z"/>
<path d="M11250 3628 c0 -3 13 -34 29 -70 20 -44 38 -68 56 -76 17 -8 24 -8
20 -2 -22 35 -105 153 -105 148z"/>
<path d="M16166 3601 c-4 -7 -5 -15 -2 -18 9 -9 19 4 14 18 -4 11 -6 11 -12 0z"/>
<path d="M16175 3411 c-3 -5 -1 -12 5 -16 5 -3 10 1 10 9 0 18 -6 21 -15 7z"/>
<path d="M11757 2944 c41 -51 84 -94 95 -94 5 0 -17 29 -49 65 -61 69 -95 90
-46 29z"/>
<path d="M14450 2756 c0 -9 7 -16 16 -16 9 0 14 5 12 12 -6 18 -28 21 -28 4z"/>
<path d="M12257 2509 c7 -7 15 -10 18 -7 3 3 -2 9 -12 12 -14 6 -15 5 -6 -5z"/>
<path d="M12355 2470 c9 -10 20 -19 24 -18 17 2 71 -16 71 -24 0 -5 5 -6 10
-3 20 13 9 24 -45 44 -69 26 -83 26 -60 1z"/>
<path d="M12350 2431 c0 -10 14 -15 33 -12 9 1 9 -3 -3 -33 -7 -20 -6 -24 5
-19 8 3 15 11 15 18 0 7 6 15 13 18 16 6 6 16 -19 20 -10 1 -25 6 -31 10 -8 5
-13 4 -13 -2z"/>
<path d="M13820 1931 c0 -5 9 -13 21 -16 34 -11 94 -71 112 -112 8 -21 23 -74
33 -118 9 -44 19 -82 21 -85 2 -2 19 -3 39 -2 19 2 48 -5 64 -15 29 -17 60
-67 60 -96 0 -9 12 -30 27 -47 l27 -32 9 23 c26 71 -11 240 -60 279 -19 14
-41 20 -80 20 -49 0 -54 2 -64 28 -32 85 -74 151 -106 166 -37 17 -103 22
-103 7z"/>
<path d="M12960 1901 c0 -5 7 -14 16 -22 36 -30 46 -76 59 -267 1 -23 4 -45 7
-47 10 -10 125 18 178 43 30 14 74 43 98 63 42 37 92 101 92 119 0 19 -54 9
-188 -35 -75 -25 -141 -45 -148 -45 -15 0 -24 32 -24 87 0 33 -7 50 -31 78
-29 33 -59 46 -59 26z"/>
<path d="M13597 1597 c-4 -10 -7 -26 -7 -35 1 -15 2 -15 11 1 6 10 9 25 7 35
-3 16 -4 15 -11 -1z"/>
<path d="M13593 1469 l2 -62 -45 -23 c-26 -14 -63 -24 -87 -24 -33 0 -43 -4
-43 -16 0 -16 -19 -15 -64 2 -12 5 -16 1 -14 -17 2 -18 -2 -24 -14 -23 -20 2
-24 -11 -8 -21 10 -6 -24 -31 -228 -167 -40 -27 -100 -61 -133 -75 -60 -26
-70 -37 -45 -46 28 -11 72 5 221 78 158 78 199 93 280 101 63 7 84 -8 92 -62
4 -33 1 -45 -21 -71 -14 -17 -26 -33 -26 -35 0 -7 -58 -73 -111 -128 -44 -45
-76 -60 -164 -75 -103 -18 -100 -16 -103 -72 l-3 -52 28 9 c15 4 61 26 102 49
41 23 76 41 79 41 3 0 13 6 21 14 9 7 48 30 86 51 39 21 88 50 110 65 22 15
76 46 120 69 62 32 97 61 155 122 53 56 82 80 100 81 30 2 57 23 76 61 l15 28
-55 24 c-30 13 -57 29 -61 34 -14 24 -22 8 -17 -38 4 -47 3 -50 -28 -66 -26
-14 -40 -15 -73 -6 -29 7 -43 7 -48 -1 -11 -17 -49 2 -60 29 -10 27 -4 63 12
63 5 0 9 8 9 18 0 23 41 62 97 92 41 23 43 23 63 5 22 -20 22 -20 39 12 10 19
8 22 -17 27 -15 4 -52 7 -82 7 -60 1 -107 17 -129 42 -23 29 -30 19 -28 -44z"/>
<path d="M12690 1508 c0 -5 5 -8 10 -8 6 0 10 -7 10 -16 0 -21 54 -15 58 7 2
13 -6 18 -37 21 -23 2 -41 0 -41 -4z"/>
<path d="M13280 1460 c0 -13 39 -90 45 -90 3 0 -1 13 -10 30 -8 16 -15 36 -15
44 0 8 -4 18 -10 21 -5 3 -10 1 -10 -5z"/>
<path d="M13992 1030 c2 -6 -22 -34 -52 -62 -59 -54 -57 -53 33 7 31 21 56 43
54 49 -5 15 -38 21 -35 6z"/>
</g>
</svg>
