<?xml version="1.0" standalone="no"?>
<!DOCTYPE svg PUBLIC "-//W3C//DTD SVG 20010904//EN"
 "http://www.w3.org/TR/2001/REC-SVG-20010904/DTD/svg10.dtd">
<svg version="1.0" xmlns="http://www.w3.org/2000/svg"
 width="1735.000000pt" height="609.000000pt" viewBox="0 0 1735.000000 609.000000"
 preserveAspectRatio="xMidYMid meet">

<g transform="translate(0.000000,609.000000) scale(0.100000,-0.100000)"
fill="#000000" stroke="none">
<path d="M0 3045 l0 -3045 4115 0 c3651 0 4115 2 4115 15 0 18 -1 18 43 0 54
-23 560 -22 638 1 183 54 363 145 769 387 277 166 479 272 569 298 44 13 45
13 65 -16 39 -56 146 -152 203 -183 97 -51 160 -64 307 -64 141 0 275 20 361
54 59 23 100 57 85 72 -16 16 157 83 205 79 53 -4 220 65 220 91 0 13 53 41
210 110 250 111 305 137 305 149 0 4 5 5 10 2 14 -9 191 85 425 225 229 136
301 184 337 224 18 19 28 25 28 16 0 -8 16 3 35 25 36 42 47 67 18 44 -15 -12
-16 -12 -10 4 16 41 19 52 7 32 -38 -62 -65 -94 -107 -127 -50 -38 -230 -148
-418 -257 -60 -35 -140 -84 -177 -108 -38 -25 -73 -41 -79 -37 -8 5 -9 3 -4
-6 6 -10 4 -12 -9 -7 -11 5 -15 3 -10 -5 5 -8 2 -9 -10 -5 -11 5 -15 3 -10 -5
5 -8 2 -9 -9 -5 -9 3 -23 -1 -32 -9 -8 -9 -15 -12 -15 -7 0 4 -4 2 -9 -6 -5
-8 -20 -15 -33 -17 -12 -1 -27 -3 -31 -3 -5 -1 -5 -6 -2 -12 4 -6 1 -9 -7 -7
-13 3 -157 -58 -168 -71 -3 -3 -9 -7 -15 -8 -5 -1 -73 -30 -150 -63 -174 -77
-501 -210 -515 -210 -5 0 -10 9 -10 20 0 16 12 23 61 37 47 13 57 19 43 26
-11 6 -27 4 -50 -7 -34 -15 -44 -10 -23 11 16 16 -150 -41 -191 -65 -48 -29
-166 -45 -287 -40 -94 4 -109 8 -178 42 -135 67 -235 193 -234 296 1 48 19
135 39 185 38 97 126 183 264 255 73 38 240 100 270 100 9 0 25 9 36 20 11 11
47 27 79 36 33 10 63 24 66 32 4 10 1 12 -12 7 -51 -22 -127 -45 -137 -42 -6
2 -11 19 -11 38 0 44 -16 47 -108 18 -180 -56 -382 -173 -483 -282 -92 -98
-154 -246 -154 -364 0 -35 -5 -55 -18 -66 -9 -8 -84 -49 -167 -91 -82 -41
-278 -152 -435 -246 -281 -169 -518 -294 -654 -345 -242 -89 -477 -99 -644
-25 -44 20 -44 20 -37 57 9 48 369 1525 392 1612 l18 64 98 39 c174 70 271 90
442 92 83 0 233 -5 335 -13 475 -36 790 24 1063 202 97 64 216 167 272 236 22
28 45 50 51 51 6 0 11 6 11 13 0 6 25 50 55 97 31 47 73 119 93 160 38 76 106
245 108 268 0 6 9 12 20 12 15 0 17 4 11 18 -4 9 -7 35 -7 57 l1 40 -11 -32
c-7 -17 -15 -35 -19 -39 -5 -4 -8 -16 -8 -26 0 -10 -4 -18 -10 -18 -14 0 -12
22 5 64 38 90 56 140 47 131 -6 -5 -31 -64 -56 -130 -40 -103 -84 -214 -116
-290 -8 -19 -9 -19 -9 3 -1 12 6 33 14 46 8 12 29 60 45 105 25 68 28 83 15
87 -8 3 -19 4 -26 2 -10 -3 -47 -89 -102 -239 -42 -111 -194 -320 -299 -410
-155 -133 -347 -227 -548 -268 -136 -28 -402 -32 -674 -11 -293 23 -452 8
-654 -60 -61 -21 -112 -35 -112 -32 0 6 948 3905 975 4010 l13 52 -4854 0
-4854 0 0 -3045z m10225 -955 c-11 -5 -33 -8 -50 -8 l-30 0 30 8 c17 4 39 8
50 8 l20 1 -20 -9z m-92 -17 c-7 -2 -21 -2 -30 0 -10 3 -4 5 12 5 17 0 24 -2
18 -5z m-78 -14 c-16 -5 -82 -12 -145 -14 -63 -2 -108 -2 -100 1 17 5 188 21
240 22 l35 0 -30 -9z m-15 -39 c0 -5 -21 -9 -47 -9 l-48 2 40 7 c22 4 43 8 48
9 4 0 7 -3 7 -9z m912 -512 c-7 -7 -12 -8 -12 -2 0 14 12 26 19 19 2 -3 -1
-11 -7 -17z m2079 -21 l-24 -22 19 27 c10 14 21 24 23 22 3 -3 -6 -15 -18 -27z
m-2076 -13 c-27 -11 -155 -40 -148 -33 10 10 112 37 138 37 11 0 16 -1 10 -4z
m-415 -140 c-108 -71 -172 -148 -213 -253 -11 -31 -15 -36 -12 -16 9 49 52
129 95 178 39 44 153 127 175 127 5 0 -15 -16 -45 -36z m-236 -411 c-2 -58 -7
-110 -12 -115 -4 -4 -7 20 -5 54 4 80 14 168 17 168 2 0 2 -48 0 -107z m302
-380 c53 -30 175 -47 294 -40 71 4 87 3 65 -5 -16 -5 -91 -10 -165 -11 -118 0
-142 2 -193 22 -31 12 -55 27 -52 32 4 5 -6 21 -22 35 l-28 26 30 -18 c17 -10
48 -28 71 -41z m599 27 c-10 -11 -23 -20 -28 -20 -6 0 -2 9 8 20 10 11 23 20
28 20 6 0 2 -9 -8 -20z m-95 -74 c0 -3 -4 -8 -10 -11 -5 -3 -10 -1 -10 4 0 6
5 11 10 11 6 0 10 -2 10 -4z m-1495 -52 c-25 -19 -115 -66 -115 -60 0 5 122
76 130 76 3 -1 -4 -8 -15 -16z m-160 -94 c-3 -5 -27 -22 -53 -37 -26 -15 -72
-44 -103 -64 -57 -38 -129 -72 -136 -65 -3 2 6 11 19 19 32 21 272 157 276
157 2 0 0 -4 -3 -10z m-338 -236 c-27 -14 -54 -23 -60 -21 -14 5 70 47 93 46
8 0 -7 -11 -33 -25z"/>
<path d="M13461 6035 c-192 -29 -395 -106 -542 -206 -144 -96 -277 -259 -346
-422 -107 -253 -131 -645 -67 -1067 38 -253 131 -477 257 -625 83 -97 158
-175 169 -175 4 0 26 -16 48 -36 23 -21 44 -33 51 -28 9 5 10 1 7 -14 -9 -31
6 -27 36 11 14 17 30 36 35 40 64 60 60 58 86 41 21 -14 25 -14 25 -2 0 8 -11
21 -25 28 -25 13 -25 14 -7 34 34 37 36 52 4 22 -18 -17 -32 -38 -32 -48 0
-46 -46 -26 -145 62 -22 20 -66 55 -97 78 -207 153 -321 524 -322 1052 -1 295
20 431 94 594 99 221 302 394 565 479 162 53 228 62 445 61 144 0 179 -4 273
-27 114 -28 245 -72 312 -105 22 -11 58 -28 80 -38 146 -67 328 -188 716 -476
63 -46 206 -152 319 -234 450 -327 640 -486 833 -694 152 -165 248 -319 276
-445 13 -58 20 -175 10 -175 -8 0 -108 66 -129 86 -24 22 -71 58 -125 94 -27
19 -86 65 -130 103 -120 104 -185 143 -317 191 -36 13 -51 26 -65 53 -23 47
-44 60 -75 46 -23 -10 -23 -10 5 -10 31 -1 67 -28 67 -51 0 -9 -8 -4 -21 13
-17 21 -28 26 -52 22 -29 -4 -128 30 -150 52 -6 6 -17 11 -24 11 -7 0 -50 19
-94 43 l-81 42 -19 -25 c-156 -209 -285 -388 -379 -524 -63 -93 -144 -209
-179 -260 -35 -50 -134 -194 -219 -321 -86 -126 -158 -232 -161 -235 -3 -3
-10 -13 -16 -22 -9 -15 -63 -95 -196 -286 -39 -56 -42 -65 -27 -73 9 -5 23
-15 30 -22 8 -6 19 -13 25 -14 7 -2 45 -25 85 -52 40 -27 76 -47 80 -45 4 3 9
-10 9 -28 2 -30 2 -31 6 -5 5 30 23 27 23 -4 0 -33 44 -69 85 -69 23 0 35 -5
35 -14 0 -8 15 -23 33 -35 53 -34 222 -153 227 -160 3 -3 25 -19 50 -35 25
-16 61 -42 80 -57 107 -87 255 -192 485 -348 261 -176 335 -228 395 -276 30
-25 60 -45 66 -45 6 0 17 -7 24 -15 7 -8 21 -15 31 -15 11 0 19 -7 20 -17 0
-12 2 -13 6 -5 4 10 10 10 28 -2 34 -23 143 -58 155 -51 5 3 16 20 25 38 15
33 73 108 124 162 15 17 43 53 61 80 52 78 164 235 166 232 3 -3 -16 -79 -251
-1046 -107 -442 -195 -807 -195 -812 0 -5 281 -9 655 -9 l655 0 -1 2693 0
2692 -225 -920 c-123 -506 -227 -926 -230 -934 -3 -11 -9 -8 -22 10 -19 28
-53 58 -66 59 -5 0 -17 -6 -25 -14 -14 -13 -20 -11 -48 12 -32 26 -32 28 -22
72 17 71 5 204 -26 290 -82 226 -311 485 -725 819 -125 101 -358 279 -990 757
-348 263 -657 418 -966 484 -130 28 -407 36 -543 15z m3129 -2252 c0 -31 -2
-54 -5 -51 -11 10 -15 108 -5 108 6 0 10 -25 10 -57z m-236 -238 c61 -46 127
-98 146 -115 l35 -30 -30 12 c-55 23 -75 35 -117 71 -106 88 -131 107 -144
108 -8 1 -18 3 -24 4 -5 1 -13 3 -16 4 -10 2 17 31 28 31 6 0 60 -38 122 -85z
m-3304 53 c44 -68 49 -107 12 -93 -32 12 -82 50 -82 62 0 12 38 53 49 53 4 0
13 -10 21 -22z m3110 -42 c0 -2 -8 -10 -17 -17 -16 -13 -17 -12 -4 4 13 16 21
21 21 13z m195 -66 c3 -6 -1 -7 -9 -4 -18 7 -21 14 -7 14 6 0 13 -4 16 -10z
m-307 -60 c-22 -30 -35 -41 -22 -17 9 16 36 47 41 47 2 0 -6 -13 -19 -30z
m-48 -69 c0 -5 -7 -12 -16 -15 -14 -5 -15 -4 -4 9 14 17 20 19 20 6z m-122
-158 c-9 -10 -18 -29 -20 -43 -4 -21 -6 -22 -12 -8 -7 16 32 84 42 73 3 -3 -2
-13 -10 -22z m-58 -82 c-5 -11 -15 -23 -22 -27 -7 -5 -8 -2 -3 7 21 37 44 55
25 20z m-50 -65 c0 -2 -8 -10 -17 -17 -16 -13 -17 -12 -4 4 13 16 21 21 21 13z
m-77 -120 c4 -10 1 -13 -9 -9 -15 6 -19 23 -5 23 5 0 11 -7 14 -14z m-83 -97
c-7 -11 -14 -18 -17 -15 -3 3 0 12 7 21 18 21 23 19 10 -6z m-40 -58 c0 -5 -7
-12 -16 -15 -14 -5 -15 -4 -4 9 14 17 20 19 20 6z m-127 -156 c-3 -9 -8 -14
-10 -11 -3 3 -2 9 2 15 9 16 15 13 8 -4z m-161 -217 c-19 -19 -14 -44 13 -58
14 -7 25 -17 25 -22 0 -5 -15 3 -34 17 -24 18 -33 32 -29 43 9 24 25 43 31 37
3 -3 0 -11 -6 -17z m169 -171 c23 -20 40 -39 38 -42 -8 -7 -159 107 -153 116
5 9 54 -22 115 -74z m74 -57 c3 -5 2 -10 -4 -10 -5 0 -13 5 -16 10 -3 6 -2 10
4 10 5 0 13 -4 16 -10z"/>
<path d="M13810 4542 c-30 -10 -70 -26 -88 -36 -32 -17 -33 -16 -51 5 -30 37
-73 28 -140 -30 -96 -83 -181 -193 -236 -307 -39 -80 -86 -326 -89 -464 -1
-30 5 -39 46 -69 40 -30 45 -38 34 -51 -26 -30 -29 -45 -4 -22 30 27 33 27 60
3 l21 -20 -24 -30 c-17 -22 -30 -29 -46 -26 -17 4 -20 1 -16 -13 2 -10 -3 -24
-11 -31 -9 -8 -16 -20 -16 -28 0 -15 58 -73 73 -73 16 0 5 20 -23 40 -29 20
-29 22 -14 46 9 13 23 24 30 24 8 0 14 6 14 14 0 19 39 67 53 65 7 -1 26 1 42
5 97 23 155 39 197 53 38 14 52 14 73 5 24 -11 26 -11 20 8 -4 12 -2 20 5 20
6 0 16 4 23 10 7 5 48 36 92 68 183 133 335 355 360 525 9 62 -20 190 -49 217
-12 10 -40 37 -63 58 -23 22 -53 40 -65 40 -13 0 -52 3 -88 6 -49 5 -79 2
-120 -12z"/>
<path d="M10970 4246 c0 -2 7 -7 16 -10 8 -3 12 -2 9 4 -6 10 -25 14 -25 6z"/>
<path d="M12301 3986 c2 -2 15 -9 29 -15 24 -11 24 -11 6 3 -16 13 -49 24 -35
12z"/>
<path d="M11600 3926 c0 -2 7 -7 16 -10 8 -3 12 -2 9 4 -6 10 -25 14 -25 6z"/>
<path d="M12686 3743 c-6 -14 -5 -15 5 -6 7 7 10 15 7 18 -3 3 -9 -2 -12 -12z"/>
<path d="M12101 3666 c10 -9 69 -36 69 -32 0 6 -55 36 -66 36 -4 0 -5 -2 -3
-4z"/>
<path d="M13245 3520 c3 -5 11 -10 16 -10 6 0 7 5 4 10 -3 6 -11 10 -16 10 -6
0 -7 -4 -4 -10z"/>
<path d="M13222 3498 c2 -7 -3 -12 -10 -10 -8 1 -11 -2 -8 -7 3 -5 -12 -33
-35 -63 -39 -52 -39 -52 -4 -13 57 62 77 93 65 100 -6 4 -9 1 -8 -7z"/>
<path d="M11620 3476 c0 -2 7 -7 16 -10 8 -3 12 -2 9 4 -6 10 -25 14 -25 6z"/>
<path d="M10820 3446 c0 -2 7 -7 16 -10 8 -3 12 -2 9 4 -6 10 -25 14 -25 6z"/>
<path d="M12517 3420 c-148 -38 -282 -168 -328 -320 -31 -103 -28 -297 4 -297
9 0 12 33 12 126 0 125 0 127 37 204 27 56 56 96 100 140 79 78 146 106 276
117 91 8 112 14 99 26 -10 11 -161 13 -200 4z"/>
<path d="M12820 3405 c76 -29 70 -27 70 -16 0 11 -85 41 -114 40 -12 0 8 -11
44 -24z"/>
<path d="M11750 3396 c0 -2 7 -7 16 -10 8 -3 12 -2 9 4 -6 10 -25 14 -25 6z"/>
<path d="M13186 3353 c-30 -44 -26 -54 12 -26 l27 20 30 -28 c23 -22 27 -31
17 -41 -15 -15 -53 17 -45 39 5 13 3 13 -16 3 -23 -12 -23 -12 14 -37 27 -18
35 -30 32 -44 -3 -11 -1 -16 4 -13 9 5 76 -39 90 -59 7 -11 29 -1 29 13 0 5
-9 12 -20 15 -17 5 -18 10 -9 27 12 22 6 34 -10 23 -6 -3 -9 -11 -6 -16 9 -13
-7 -11 -27 5 -21 16 -23 37 -6 54 10 10 3 22 -35 57 -26 25 -50 45 -52 45 -2
0 -16 -17 -29 -37z"/>
<path d="M13350 3369 c-17 -30 -6 -34 14 -4 9 14 12 25 7 25 -6 0 -15 -9 -21
-21z"/>
<path d="M13390 3380 c0 -6 7 -13 15 -16 10 -4 13 -13 10 -24 -4 -14 0 -18 17
-17 13 0 32 -3 43 -8 11 -4 0 11 -25 33 -46 42 -60 50 -60 32z"/>
<path d="M10960 3344 c0 -40 31 -127 42 -116 6 6 4 20 -7 41 -9 17 -13 36 -10
41 3 6 -1 20 -9 32 -16 22 -16 22 -16 2z"/>
<path d="M12960 3331 c0 -5 7 -11 15 -15 9 -3 15 0 15 9 0 8 -7 15 -15 15 -8
0 -15 -4 -15 -9z"/>
<path d="M11930 3316 c0 -2 7 -7 16 -10 8 -3 12 -2 9 4 -6 10 -25 14 -25 6z"/>
<path d="M13025 3270 c4 -6 11 -8 16 -5 14 9 11 15 -7 15 -8 0 -12 -5 -9 -10z"/>
<path d="M13445 3254 c-9 -15 -12 -23 -6 -20 11 7 35 46 28 46 -3 0 -12 -12
-22 -26z"/>
<path d="M11328 3257 c-16 -6 -28 -14 -28 -19 0 -14 17 -9 41 12 27 22 26 22
-13 7z"/>
<path d="M12070 3235 c0 -2 18 -14 40 -25 22 -11 40 -18 40 -15 0 2 -18 14
-40 25 -22 11 -40 18 -40 15z"/>
<path d="M12410 3236 c0 -2 8 -10 18 -17 15 -13 16 -12 3 4 -13 16 -21 21 -21
13z"/>
<path d="M11494 3206 c-6 -15 19 -45 38 -46 10 0 -3 38 -18 51 -11 9 -15 8
-20 -5z"/>
<path d="M12340 3196 c0 -2 8 -10 18 -17 15 -13 16 -12 3 4 -13 16 -21 21 -21
13z"/>
<path d="M11429 3142 c-13 -10 -39 -24 -57 -31 -30 -13 -50 -46 -40 -69 5 -14
101 17 131 41 27 22 27 22 9 50 -19 27 -19 27 -43 9z"/>
<path d="M12740 3092 c-77 -25 -88 -31 -50 -26 54 9 100 25 100 35 0 5 -1 8
-2 8 -2 -1 -23 -8 -48 -17z"/>
<path d="M13237 3089 c7 -7 15 -10 18 -7 3 3 -2 9 -12 12 -14 6 -15 5 -6 -5z"/>
<path d="M10660 3086 c0 -2 7 -7 16 -10 8 -3 12 -2 9 4 -6 10 -25 14 -25 6z"/>
<path d="M14140 3046 c0 -3 9 -10 20 -16 11 -6 20 -8 20 -6 0 3 -9 10 -20 16
-11 6 -20 8 -20 6z"/>
<path d="M12572 3020 c-6 -11 -11 -37 -11 -57 l2 -38 6 42 c4 23 13 48 20 57
8 9 9 16 5 16 -5 0 -15 -9 -22 -20z"/>
<path d="M10885 2970 c-3 -5 -1 -10 4 -10 6 0 11 5 11 10 0 6 -2 10 -4 10 -3
0 -8 -4 -11 -10z"/>
<path d="M12717 2965 c-4 -8 -21 -18 -39 -23 -21 -5 -34 -15 -36 -28 -2 -10
-14 -30 -25 -44 -12 -14 -15 -19 -7 -12 8 6 24 12 36 12 38 0 54 11 54 38 0
14 10 36 22 49 12 13 17 23 11 23 -6 0 -13 -7 -16 -15z m-47 -55 c0 -5 -2 -10
-4 -10 -3 0 -8 5 -11 10 -3 6 -1 10 4 10 6 0 11 -4 11 -10z"/>
<path d="M13501 2946 c10 -9 89 -46 89 -41 0 5 -75 45 -86 45 -4 0 -5 -2 -3
-4z"/>
<path d="M12585 2900 c10 -11 20 -20 23 -20 3 0 -3 9 -13 20 -10 11 -20 20
-23 20 -3 0 3 -9 13 -20z"/>
<path d="M13078 2883 c7 -3 16 -2 19 1 4 3 -2 6 -13 5 -11 0 -14 -3 -6 -6z"/>
<path d="M11947 2849 c7 -7 15 -10 18 -7 3 3 -2 9 -12 12 -14 6 -15 5 -6 -5z"/>
<path d="M12520 2785 c0 -8 7 -15 15 -15 8 0 15 7 15 15 0 8 -7 15 -15 15 -8
0 -15 -7 -15 -15z"/>
<path d="M11397 2689 c7 -7 15 -10 18 -7 3 3 -2 9 -12 12 -14 6 -15 5 -6 -5z"/>
<path d="M14004 2685 c11 -8 24 -15 30 -15 5 0 1 7 -10 15 -10 8 -23 14 -29
14 -5 0 -1 -6 9 -14z"/>
<path d="M12389 2663 c-13 -16 -12 -17 4 -4 16 13 21 21 13 21 -2 0 -10 -8
-17 -17z"/>
<path d="M13058 2616 c-3 -14 -2 -26 2 -26 13 0 21 33 12 42 -6 6 -11 -1 -14
-16z"/>
<path d="M11580 2606 c0 -2 7 -7 16 -10 8 -3 12 -2 9 4 -6 10 -25 14 -25 6z"/>
<path d="M13337 2589 c7 -7 15 -10 18 -7 3 3 -2 9 -12 12 -14 6 -15 5 -6 -5z"/>
<path d="M14295 2535 c17 -13 36 -25 43 -25 22 0 13 9 -30 30 l-43 21 30 -26z"/>
<path d="M11747 2509 c7 -7 15 -10 18 -7 3 3 -2 9 -12 12 -14 6 -15 5 -6 -5z"/>
<path d="M12412 2493 c5 -24 107 -73 169 -80 66 -8 59 9 -14 33 -28 9 -73 27
-99 40 -57 29 -60 29 -56 7z"/>
<path d="M14395 2430 c3 -5 8 -10 11 -10 2 0 4 5 4 10 0 6 -5 10 -11 10 -5 0
-7 -4 -4 -10z"/>
<path d="M12878 2388 c11 -14 52 -31 52 -22 0 2 -15 11 -32 20 -28 14 -31 15
-20 2z"/>
<path d="M13780 2366 c0 -3 9 -10 20 -16 11 -6 20 -8 20 -6 0 3 -9 10 -20 16
-11 6 -20 8 -20 6z"/>
<path d="M11190 2346 c0 -2 7 -7 16 -10 8 -3 12 -2 9 4 -6 10 -25 14 -25 6z"/>
<path d="M13100 2266 c0 -2 7 -7 16 -10 8 -3 12 -2 9 4 -6 10 -25 14 -25 6z"/>
<path d="M13160 2236 c0 -3 9 -10 20 -16 11 -6 20 -8 20 -6 0 3 -9 10 -20 16
-11 6 -20 8 -20 6z"/>
<path d="M12300 2226 c0 -3 9 -10 20 -16 11 -6 20 -8 20 -6 0 3 -9 10 -20 16
-11 6 -20 8 -20 6z"/>
<path d="M10687 2199 c7 -7 15 -10 18 -7 3 3 -2 9 -12 12 -14 6 -15 5 -6 -5z"/>
<path d="M11594 2136 c11 -9 24 -16 30 -16 12 0 7 5 -24 19 -24 11 -24 11 -6
-3z"/>
<path d="M12878 2091 c-38 -35 -41 -41 -31 -64 18 -40 70 -94 109 -112 33 -15
37 -15 53 -1 17 16 20 13 47 -38 35 -67 42 -67 14 0 -12 27 -22 73 -24 104 -1
30 -12 76 -24 103 -20 45 -23 47 -62 47 -34 0 -48 -7 -82 -39z m72 -21 c0 -5
-7 -10 -16 -10 -8 0 -12 5 -9 10 3 6 10 10 16 10 5 0 9 -4 9 -10z m28 -135
c-3 -3 -9 2 -12 12 -6 14 -5 15 5 6 7 -7 10 -15 7 -18z"/>
<path d="M12700 2036 c0 -3 9 -10 20 -16 11 -6 20 -8 20 -6 0 3 -9 10 -20 16
-11 6 -20 8 -20 6z"/>
<path d="M13600 2006 c0 -2 7 -7 16 -10 8 -3 12 -2 9 4 -6 10 -25 14 -25 6z"/>
<path d="M12915 1910 c39 -22 75 -38 81 -36 7 3 20 -13 30 -35 9 -22 21 -42
26 -45 5 -4 -2 17 -17 46 -14 29 -29 50 -32 46 -3 -3 -36 10 -74 29 -92 47
-100 44 -14 -5z"/>
<path d="M12700 1870 l-65 -7 55 -1 c30 0 75 3 100 7 40 8 41 8 10 8 -19 0
-64 -3 -100 -7z"/>
<path d="M12120 1866 c0 -3 14 -12 30 -21 17 -9 30 -13 30 -11 0 3 -13 12 -30
21 -16 9 -30 13 -30 11z"/>
<path d="M12895 1855 c76 -17 90 -17 45 0 -19 7 -51 13 -70 13 -28 0 -23 -2
25 -13z"/>
<path d="M12578 1853 c7 -3 16 -2 19 1 4 3 -2 6 -13 5 -11 0 -14 -3 -6 -6z"/>
<path d="M12715 1840 c-37 -6 -25 -7 47 -4 55 3 99 1 102 -4 6 -9 68 -26 112
-31 6 0 23 -12 37 -27 l25 -25 -3 26 c-1 15 -8 32 -14 38 -9 9 -11 8 -6 -5 6
-15 0 -14 -47 7 -61 28 -169 39 -253 25z"/>
<path d="M12608 1823 c12 -2 30 -2 40 0 9 3 -1 5 -23 4 -22 0 -30 -2 -17 -4z"/>
<path d="M12398 1803 c7 -3 16 -2 19 1 4 3 -2 6 -13 5 -11 0 -14 -3 -6 -6z"/>
<path d="M12208 1783 c7 -3 16 -2 19 1 4 3 -2 6 -13 5 -11 0 -14 -3 -6 -6z"/>
<path d="M12090 1769 c-73 -12 -356 -73 -500 -109 -63 -15 -128 -31 -144 -34
-15 -4 -26 -9 -23 -12 2 -3 56 7 118 21 63 15 186 42 274 60 88 19 186 41 218
49 32 8 63 13 70 10 7 -2 29 2 48 10 39 17 23 18 -61 5z"/>
<path d="M13120 1716 c0 -3 14 -27 30 -53 34 -54 39 -51 10 7 -17 34 -40 60
-40 46z"/>
<path d="M13053 1649 c-8 -40 -25 -81 -49 -118 -33 -50 -34 -53 -9 -31 39 36
66 94 72 156 3 30 4 54 2 54 -3 0 -10 -28 -16 -61z"/>
<path d="M13121 1665 c0 -11 6 -42 14 -70 13 -47 14 -48 14 -15 -1 37 -27 120
-28 85z"/>
<path d="M12537 1659 c7 -7 15 -10 18 -7 3 3 -2 9 -12 12 -14 6 -15 5 -6 -5z"/>
<path d="M13390 1666 c0 -2 7 -7 16 -10 8 -3 12 -2 9 4 -6 10 -25 14 -25 6z"/>
<path d="M13437 1639 c7 -7 15 -10 18 -7 3 3 -2 9 -12 12 -14 6 -15 5 -6 -5z"/>
<path d="M11050 1606 c0 -2 7 -7 16 -10 8 -3 12 -2 9 4 -6 10 -25 14 -25 6z"/>
<path d="M11300 1585 c-49 -15 -65 -24 -47 -24 35 -1 147 30 147 41 0 12 -15
9 -100 -17z"/>
<path d="M12690 1575 c0 -2 23 -16 50 -30 28 -14 50 -23 50 -20 0 2 -22 16
-50 30 -27 14 -50 23 -50 20z"/>
<path d="M11950 1526 c0 -2 7 -7 16 -10 8 -3 12 -2 9 4 -6 10 -25 14 -25 6z"/>
<path d="M13118 1470 c-14 -36 -22 -114 -14 -143 7 -29 34 -41 89 -39 21 1 48
-3 60 -10 19 -10 20 -9 9 4 -10 13 -9 18 4 29 21 17 14 81 -15 141 -21 44 -21
44 -72 44 -45 -1 -53 -4 -61 -26z m82 -64 c0 -13 3 -33 6 -43 4 -14 4 -15 -4
-4 -5 7 -15 10 -21 7 -12 -8 -14 7 -5 42 8 29 24 28 24 -2z"/>
<path d="M13734 1486 c11 -9 24 -16 30 -16 12 0 7 5 -24 19 -24 11 -24 11 -6
-3z"/>
<path d="M12360 1326 c0 -2 7 -7 16 -10 8 -3 12 -2 9 4 -6 10 -25 14 -25 6z"/>
<path d="M11787 1209 c7 -7 15 -10 18 -7 3 3 -2 9 -12 12 -14 6 -15 5 -6 -5z"/>
<path d="M13557 1119 c7 -7 15 -10 18 -7 3 3 -2 9 -12 12 -14 6 -15 5 -6 -5z"/>
<path d="M13067 949 c7 -7 15 -10 18 -7 3 3 -2 9 -12 12 -14 6 -15 5 -6 -5z"/>
</g>
</svg>
