<svg width="17" height="17" viewBox="0 0 17 17" fill="none" xmlns="http://www.w3.org/2000/svg">
<g clip-path="url(#clip0_3694_24471)">
<path d="M15.3203 12.6361L10.8917 8.63607M7.08222 8.63607L2.65367 12.6361M2.32031 5.30273L7.76359 9.11303C8.20437 9.42158 8.42476 9.57585 8.66449 9.63561C8.87624 9.68839 9.09772 9.68839 9.30947 9.63561C9.5492 9.57585 9.76959 9.42158 10.2104 9.11303L15.6536 5.30273M5.52031 13.9694H12.4536C13.5738 13.9694 14.1338 13.9694 14.5616 13.7514C14.938 13.5597 15.2439 13.2537 15.4357 12.8774C15.6536 12.4496 15.6536 11.8895 15.6536 10.7694V6.50273C15.6536 5.38263 15.6536 4.82258 15.4357 4.39475C15.2439 4.01843 14.938 3.71247 14.5616 3.52072C14.1338 3.30273 13.5738 3.30273 12.4536 3.30273H5.52031C4.40021 3.30273 3.84016 3.30273 3.41233 3.52072C3.03601 3.71247 2.73005 4.01843 2.5383 4.39475C2.32031 4.82258 2.32031 5.38263 2.32031 6.50273V10.7694C2.32031 11.8895 2.32031 12.4496 2.5383 12.8774C2.73005 13.2537 3.03601 13.5597 3.41233 13.7514C3.84016 13.9694 4.40021 13.9694 5.52031 13.9694Z" stroke="black" stroke-linecap="round" stroke-linejoin="round"/>
</g>
<defs>
<clipPath id="clip0_3694_24471">
<rect width="16" height="16" fill="white" transform="translate(0.986328 0.635742)"/>
</clipPath>
</defs>
</svg>
