<svg width="17" height="21" viewBox="0 0 17 21" fill="none" xmlns="http://www.w3.org/2000/svg">
<g clip-path="url(#clip0_2027_309545)">
<path d="M1.36914 6.34394L6.95905 11.1146C7.4117 11.5009 7.63803 11.6941 7.88421 11.7689C8.10167 11.835 8.32911 11.835 8.54657 11.7689C8.79275 11.6941 9.01908 11.5009 9.47173 11.1146L15.0616 6.34394M4.65534 17.195H11.7754C12.9257 17.195 13.5009 17.195 13.9402 16.9221C14.3267 16.682 14.6409 16.299 14.8378 15.8278C15.0616 15.2921 15.0616 14.5909 15.0616 13.1885V7.8464C15.0616 6.44397 15.0616 5.74276 14.8378 5.20711C14.6409 4.73593 14.3267 4.35285 13.9402 4.11277C13.5009 3.83984 12.9257 3.83984 11.7754 3.83984H4.65534C3.50506 3.83984 2.92992 3.83984 2.49058 4.11277C2.10411 4.35285 1.78991 4.73593 1.593 5.20711C1.36914 5.74276 1.36914 6.44397 1.36914 7.8464V13.1885C1.36914 14.5909 1.36914 15.2921 1.593 15.8278C1.78991 16.299 2.10411 16.682 2.49058 16.9221C2.92992 17.195 3.50506 17.195 4.65534 17.195Z" stroke="black" stroke-width="2" stroke-linecap="round" stroke-linejoin="round"/>
</g>
<defs>
<clipPath id="clip0_2027_309545">
<rect width="16.431" height="20.0328" fill="white" transform="translate(0 0.5)"/>
</clipPath>
</defs>
</svg>
