<svg width="26" height="26" viewBox="0 0 26 26" fill="none" xmlns="http://www.w3.org/2000/svg">
<path d="M2.54346 7.79297L11.0084 13.7466C11.6938 14.2287 12.0365 14.4697 12.4093 14.5631C12.7386 14.6456 13.0831 14.6456 13.4124 14.5631C13.7852 14.4697 14.1279 14.2287 14.8134 13.7466L23.2782 7.79297M7.51981 21.3346H18.3019C20.0438 21.3346 20.9147 21.3346 21.58 20.994C22.1653 20.6944 22.6411 20.2164 22.9393 19.6284C23.2782 18.9599 23.2782 18.0848 23.2782 16.3346V9.66797C23.2782 7.9178 23.2782 7.04272 22.9393 6.37425C22.6411 5.78624 22.1653 5.30818 21.58 5.00857C20.9147 4.66797 20.0438 4.66797 18.3019 4.66797H7.51981C5.77792 4.66797 4.90698 4.66797 4.24167 5.00857C3.65644 5.30818 3.18064 5.78624 2.88245 6.37425C2.54346 7.04272 2.54346 7.9178 2.54346 9.66797V16.3346C2.54346 18.0848 2.54346 18.9599 2.88245 19.6284C3.18064 20.2164 3.65644 20.6944 4.24167 20.994C4.90698 21.3346 5.77792 21.3346 7.51981 21.3346Z" stroke="black" stroke-width="2" stroke-linecap="round" stroke-linejoin="round"/>
</svg>
