<svg width="25" height="26" viewBox="0 0 25 26" fill="none" xmlns="http://www.w3.org/2000/svg">
<path d="M8.68795 9.72127C9.40952 11.2313 10.3932 12.6465 11.6389 13.8982C12.8846 15.1498 14.2932 16.1381 15.796 16.8631C15.9253 16.9255 15.99 16.9567 16.0717 16.9806C16.3624 17.0658 16.7193 17.0046 16.9655 16.8275C17.0347 16.7777 17.094 16.7182 17.2125 16.5991C17.5749 16.2349 17.7562 16.0528 17.9384 15.9338C18.6256 15.4848 19.5116 15.4848 20.1989 15.9338C20.3811 16.0528 20.5623 16.2349 20.9248 16.5991L21.1268 16.8021C21.6778 17.3557 21.9533 17.6324 22.1029 17.9297C22.4005 18.5209 22.4005 19.2191 22.1029 19.8103C21.9533 20.1076 21.6778 20.3844 21.1268 20.938L20.9634 21.1022C20.4143 21.6539 20.1398 21.9297 19.7665 22.1404C19.3523 22.3742 18.709 22.5423 18.234 22.5408C17.8059 22.5396 17.5133 22.4561 16.9281 22.2892C13.7832 21.3924 10.8157 19.7002 8.34 17.2127C5.86429 14.7253 4.18013 11.7436 3.28753 8.58385C3.12144 7.99589 3.03839 7.7019 3.03712 7.27175C3.0357 6.79444 3.20299 6.14809 3.43566 5.73194C3.64534 5.35691 3.91988 5.08106 4.46896 4.52937L4.63239 4.36517C5.18335 3.81158 5.45884 3.53479 5.7547 3.38443C6.34312 3.0854 7.03801 3.0854 7.62642 3.38443C7.92228 3.53479 8.19777 3.81158 8.74874 4.36517L8.95076 4.56816C9.31322 4.93233 9.49444 5.11442 9.61293 5.29752C10.0598 5.98803 10.0598 6.87822 9.61292 7.56873C9.49444 7.75183 9.31322 7.93392 8.95077 8.29809C8.83225 8.41717 8.773 8.4767 8.7234 8.5463C8.54714 8.79362 8.48628 9.15222 8.57101 9.44426C8.59485 9.52644 8.62588 9.59138 8.68795 9.72127Z" stroke="black" stroke-width="2" stroke-linecap="round" stroke-linejoin="round"/>
</svg>
