<svg width="33" height="33" viewBox="0 0 33 33" fill="none" xmlns="http://www.w3.org/2000/svg">
<path d="M7.40644 19H24.9207C26.2712 19 26.9464 19 27.4839 18.7482C27.9574 18.5264 28.3553 18.1703 28.628 17.7242C28.9376 17.2178 29.0122 16.5467 29.1613 15.2045L29.9413 8.18446C29.9869 7.77451 30.0096 7.56953 29.9437 7.41088C29.8858 7.27154 29.7824 7.15596 29.6503 7.08303C29.4999 7 29.2936 7 28.8812 7H6.73977M3.40625 3H5.07084C5.42367 3 5.60008 3 5.7381 3.0671C5.85961 3.12617 5.9603 3.22076 6.02683 3.33835C6.10241 3.47191 6.11342 3.64799 6.13542 4.00013L7.34374 23.3332C7.36575 23.6853 7.37676 23.8614 7.45233 23.995C7.51887 24.1126 7.61956 24.2072 7.74107 24.2662C7.87908 24.3333 8.0555 24.3333 8.40833 24.3333H26.0729M10.7396 29H10.7529M22.7396 29H22.7529M11.4062 29C11.4062 29.3682 11.1078 29.6667 10.7396 29.6667C10.3714 29.6667 10.0729 29.3682 10.0729 29C10.0729 28.6318 10.3714 28.3333 10.7396 28.3333C11.1078 28.3333 11.4062 28.6318 11.4062 29ZM23.4062 29C23.4062 29.3682 23.1078 29.6667 22.7396 29.6667C22.3714 29.6667 22.0729 29.3682 22.0729 29C22.0729 28.6318 22.3714 28.3333 22.7396 28.3333C23.1078 28.3333 23.4062 28.6318 23.4062 29Z" stroke="white" stroke-width="1.5" stroke-linecap="round" stroke-linejoin="round"/>
</svg>
