<svg width="16" height="16" viewBox="0 0 16 16" fill="none" xmlns="http://www.w3.org/2000/svg">
<path d="M5.15339 0.769421C4.91277 0.188196 4.27842 -0.121165 3.6722 0.0444527L0.922323 0.79442C0.378597 0.944413 0.000488281 1.43814 0.000488281 2.00062C0.000488281 9.73153 6.26896 16 13.9999 16C14.5623 16 15.0561 15.6219 15.2061 15.0782L15.956 12.3283C16.1217 11.7221 15.8123 11.0877 15.2311 10.8471L12.2312 9.59716C11.7218 9.38467 11.1312 9.53154 10.7844 9.95964L9.52194 11.5002C7.32204 10.4596 5.54087 8.67845 4.50029 6.47855L6.04085 5.21922C6.46895 4.86924 6.61582 4.28177 6.40333 3.77241L5.15339 0.772546V0.769421Z" fill="white"/>
</svg>
