<svg width="17" height="17" viewBox="0 0 17 17" fill="none" xmlns="http://www.w3.org/2000/svg">
<g clip-path="url(#clip0_3630_28683)">
<path d="M15.3193 12.638L10.8908 8.63802M7.08124 8.63802L2.65269 12.638M2.31934 5.30469L7.76262 9.11498C8.2034 9.42353 8.42379 9.5778 8.66351 9.63756C8.87527 9.69034 9.09674 9.69034 9.30849 9.63756C9.54822 9.5778 9.76861 9.42353 10.2094 9.11498L15.6527 5.30469M5.51934 13.9714H12.4527C13.5728 13.9714 14.1328 13.9714 14.5607 13.7534C14.937 13.5616 15.2429 13.2557 15.4347 12.8793C15.6527 12.4515 15.6527 11.8915 15.6527 10.7714V6.50469C15.6527 5.38458 15.6527 4.82453 15.4347 4.39671C15.2429 4.02038 14.937 3.71442 14.5607 3.52267C14.1328 3.30469 13.5728 3.30469 12.4527 3.30469H5.51934C4.39923 3.30469 3.83918 3.30469 3.41135 3.52267C3.03503 3.71442 2.72907 4.02038 2.53732 4.39671C2.31934 4.82453 2.31934 5.38458 2.31934 6.50469V10.7714C2.31934 11.8915 2.31934 12.4515 2.53732 12.8793C2.72907 13.2557 3.03503 13.5616 3.41135 13.7534C3.83918 13.9714 4.39923 13.9714 5.51934 13.9714Z" stroke="black" stroke-linecap="round" stroke-linejoin="round"/>
</g>
<defs>
<clipPath id="clip0_3630_28683">
<rect width="16" height="16" fill="white" transform="translate(0.986084 0.636719)"/>
</clipPath>
</defs>
</svg>
