<svg width="32" height="33" viewBox="0 0 32 33" fill="none" xmlns="http://www.w3.org/2000/svg">
<path d="M7.00019 19H24.5145C25.8649 19 26.5401 19 27.0777 18.7482C27.5512 18.5264 27.949 18.1703 28.2218 17.7242C28.5314 17.2178 28.6059 16.5467 28.7551 15.2045L29.5351 8.18446C29.5806 7.77451 29.6034 7.56953 29.5375 7.41088C29.4796 7.27154 29.3761 7.15596 29.244 7.08303C29.0936 7 28.8874 7 28.4749 7H6.33352M3 3H4.66459C5.01742 3 5.19383 3 5.33185 3.0671C5.45336 3.12617 5.55405 3.22076 5.62058 3.33835C5.69616 3.47191 5.70717 3.64799 5.72917 4.00013L6.93749 23.3332C6.9595 23.6853 6.97051 23.8614 7.04608 23.995C7.11262 24.1126 7.21331 24.2072 7.33482 24.2662C7.47283 24.3333 7.64925 24.3333 8.00208 24.3333H25.6667M10.3333 29H10.3467M22.3333 29H22.3467M11 29C11 29.3682 10.7015 29.6667 10.3333 29.6667C9.96514 29.6667 9.66667 29.3682 9.66667 29C9.66667 28.6318 9.96514 28.3333 10.3333 28.3333C10.7015 28.3333 11 28.6318 11 29ZM23 29C23 29.3682 22.7015 29.6667 22.3333 29.6667C21.9651 29.6667 21.6667 29.3682 21.6667 29C21.6667 28.6318 21.9651 28.3333 22.3333 28.3333C22.7015 28.3333 23 28.6318 23 29Z" stroke="white" stroke-width="1.5" stroke-linecap="round" stroke-linejoin="round"/>
</svg>
