<svg width="9" height="13" viewBox="0 0 9 13" fill="none" xmlns="http://www.w3.org/2000/svg">
<path d="M5.05596 12.7079C6.2583 11.0736 9.00049 7.11255 9.00049 4.88765C9.00049 2.18926 6.98486 0 4.50049 0C2.01611 0 0.000488281 2.18926 0.000488281 4.88765C0.000488281 7.11255 2.74268 11.0736 3.94502 12.7079C4.2333 13.0974 4.76768 13.0974 5.05596 12.7079ZM4.50049 3.25843C4.89831 3.25843 5.27984 3.43008 5.56115 3.73562C5.84245 4.04116 6.00049 4.45555 6.00049 4.88765C6.00049 5.31974 5.84245 5.73414 5.56115 6.03968C5.27984 6.34522 4.89831 6.51686 4.50049 6.51686C4.10266 6.51686 3.72113 6.34522 3.43983 6.03968C3.15852 5.73414 3.00049 5.31974 3.00049 4.88765C3.00049 4.45555 3.15852 4.04116 3.43983 3.73562C3.72113 3.43008 4.10266 3.25843 4.50049 3.25843Z" fill="white"/>
</svg>
