<svg width="19" height="18" viewBox="0 0 19 18" fill="none" xmlns="http://www.w3.org/2000/svg">
<path d="M13.3475 15.525L16.475 12.42L15.53 11.475L13.3475 13.6125L12.47 12.735L11.525 13.7025L13.3475 15.525ZM3.2 5.4H14V3.6H3.2V5.4ZM14 18C12.755 18 11.6936 17.5611 10.8158 16.6833C9.938 15.8055 9.4994 14.7444 9.5 13.5C9.5 12.255 9.9389 11.1936 10.8167 10.3158C11.6945 9.438 12.7556 8.9994 14 9C15.245 9 16.3064 9.4389 17.1842 10.3167C18.062 11.1945 18.5006 12.2556 18.5 13.5C18.5 14.745 18.0611 15.8064 17.1833 16.6842C16.3055 17.562 15.2444 18.0006 14 18ZM0.5 17.1V1.8C0.5 1.305 0.6764 0.881101 1.0292 0.528301C1.382 0.175501 1.8056 -0.000598472 2.3 1.52801e-06H14.9C15.395 1.52801e-06 15.8189 0.176402 16.1717 0.529202C16.5245 0.882001 16.7006 1.3056 16.7 1.8V7.8075C16.415 7.6725 16.1225 7.56 15.8225 7.47C15.5225 7.38 15.215 7.3125 14.9 7.2675V1.8H2.3V14.445H7.7675C7.8425 14.91 7.9589 15.3525 8.1167 15.7725C8.2745 16.1925 8.4806 16.59 8.735 16.965L8.6 17.1L7.25 15.75L5.9 17.1L4.55 15.75L3.2 17.1L1.85 15.75L0.5 17.1ZM3.2 12.6H7.7675C7.8125 12.285 7.88 11.9775 7.97 11.6775C8.06 11.3775 8.1725 11.085 8.3075 10.8H3.2V12.6ZM3.2 9H9.59C10.16 8.445 10.8239 8.0061 11.5817 7.6833C12.3395 7.3605 13.1456 7.1994 14 7.2H3.2V9Z" fill="black"/>
</svg>
