<svg width="19" height="25" viewBox="0 0 19 25" fill="none" xmlns="http://www.w3.org/2000/svg">
<path d="M7.0678 9.11898C7.59951 10.5686 8.32434 11.9272 9.24229 13.1288C10.1602 14.3304 11.1982 15.2792 12.3056 15.9752C12.4009 16.035 12.4485 16.065 12.5088 16.088C12.723 16.1697 12.9859 16.111 13.1673 15.941C13.2184 15.8931 13.262 15.836 13.3494 15.7217C13.6165 15.3721 13.75 15.1973 13.8843 15.083C14.3907 14.652 15.0436 14.652 15.55 15.083C15.6843 15.1973 15.8178 15.3721 16.0849 15.7217L16.2338 15.9165C16.6398 16.448 16.8427 16.7137 16.953 16.9991C17.1723 17.5667 17.1723 18.2369 16.953 18.8045C16.8427 19.0899 16.6398 19.3556 16.2338 19.887L16.1133 20.0447C15.7087 20.5743 15.5064 20.8391 15.2314 21.0413C14.9262 21.2658 14.4521 21.4271 14.1021 21.4258C13.7866 21.4245 13.571 21.3444 13.1398 21.1842C10.8224 20.3233 8.63571 18.6988 6.81141 16.3108C4.9871 13.9228 3.74608 11.0605 3.08834 8.02706C2.96595 7.46261 2.90475 7.18039 2.90382 6.76744C2.90277 6.30922 3.02605 5.68873 3.19749 5.28922C3.352 4.92919 3.5543 4.66438 3.95891 4.13476L4.07934 3.97712C4.48533 3.44568 4.68833 3.17996 4.90635 3.03562C5.33994 2.74854 5.85199 2.74854 6.28558 3.03561C6.5036 3.17996 6.7066 3.44568 7.11259 3.97712L7.26147 4.17199C7.52855 4.5216 7.66209 4.6964 7.7494 4.87218C8.07866 5.53507 8.07866 6.38965 7.7494 7.05254C7.66209 7.22832 7.52855 7.40312 7.26147 7.75273C7.17414 7.86704 7.13047 7.9242 7.09392 7.99101C6.96404 8.22844 6.9192 8.5727 6.98163 8.85305C6.9992 8.93194 7.02207 8.99429 7.0678 9.11898Z" stroke="black" stroke-width="2" stroke-linecap="round" stroke-linejoin="round"/>
</svg>
