<svg width="19" height="21" viewBox="0 0 19 21" fill="none" xmlns="http://www.w3.org/2000/svg">
<path d="M2.19336 6.10957L8.43097 10.8802C8.93608 11.2666 9.18863 11.4597 9.46334 11.5345C9.70599 11.6006 9.95979 11.6006 10.2024 11.5345C10.4771 11.4597 10.7297 11.2666 11.2348 10.8802L17.4724 6.10957M5.86033 16.9607H13.8054C15.089 16.9607 15.7308 16.9607 16.221 16.6877C16.6523 16.4477 17.0029 16.0646 17.2226 15.5934C17.4724 15.0577 17.4724 14.3565 17.4724 12.9541V7.61203C17.4724 6.2096 17.4724 5.50839 17.2226 4.97273C17.0029 4.50155 16.6523 4.11848 16.221 3.8784C15.7308 3.60547 15.089 3.60547 13.8054 3.60547H5.86033C4.57677 3.60547 3.93499 3.60547 3.44474 3.8784C3.0135 4.11848 2.66289 4.50155 2.44316 4.97273C2.19336 5.50839 2.19336 6.2096 2.19336 7.61203V12.9541C2.19336 14.3565 2.19336 15.0577 2.44316 15.5934C2.66289 16.0646 3.0135 16.4477 3.44474 16.6877C3.93499 16.9607 4.57677 16.9607 5.86033 16.9607Z" stroke="black" stroke-width="2" stroke-linecap="round" stroke-linejoin="round"/>
</svg>
