<svg width="16" height="13" viewBox="0 0 16 13" fill="none" xmlns="http://www.w3.org/2000/svg">
<path d="M14.3193 10.6302L9.89076 6.63021M6.08124 6.63021L1.65269 10.6302M1.31934 3.29687L6.76262 7.10717C7.2034 7.41572 7.42379 7.56999 7.66351 7.62975C7.87527 7.68253 8.09674 7.68253 8.30849 7.62975C8.54822 7.56999 8.76861 7.41572 9.20939 7.10717L14.6527 3.29687M4.51934 11.9635H11.4527C12.5728 11.9635 13.1328 11.9635 13.5607 11.7456C13.937 11.5538 14.2429 11.2478 14.4347 10.8715C14.6527 10.4437 14.6527 9.88365 14.6527 8.76354V4.49687C14.6527 3.37677 14.6527 2.81672 14.4347 2.38889C14.2429 2.01257 13.937 1.70661 13.5607 1.51486C13.1328 1.29688 12.5728 1.29688 11.4527 1.29688H4.51934C3.39923 1.29688 2.83918 1.29688 2.41135 1.51486C2.03503 1.70661 1.72907 2.01257 1.53732 2.38889C1.31934 2.81672 1.31934 3.37677 1.31934 4.49687V8.76354C1.31934 9.88365 1.31934 10.4437 1.53732 10.8715C1.72907 11.2478 2.03503 11.5538 2.41135 11.7456C2.83918 11.9635 3.39923 11.9635 4.51934 11.9635Z" stroke="black" stroke-linecap="round" stroke-linejoin="round"/>
</svg>
