<svg width="44" height="44" viewBox="0 0 44 44" fill="none" xmlns="http://www.w3.org/2000/svg">
<path d="M1.50977 41.7945L13.1345 37.3234C13.8781 37.0374 14.2498 36.8944 14.5977 36.7077C14.9066 36.5419 15.2011 36.3505 15.4782 36.1355C15.79 35.8935 16.0717 35.6119 16.635 35.0485L40.2641 11.4194C42.578 9.10554 42.578 5.35399 40.2642 3.0401C37.9503 0.726218 34.1987 0.726215 31.8848 3.0401L8.25571 26.6692C7.69239 27.2325 7.41074 27.5142 7.16872 27.8261C6.95375 28.1031 6.76234 28.3976 6.5965 28.7066C6.40979 29.0544 6.2668 29.4262 5.98083 30.1697L1.50977 41.7945ZM1.50977 41.7945L5.82118 30.585C6.12969 29.7828 6.28395 29.3817 6.54854 29.198C6.77977 29.0375 7.06589 28.9767 7.34239 29.0295C7.65879 29.09 7.96264 29.3938 8.57035 30.0015L13.3028 34.7339C13.9105 35.3417 14.2143 35.6455 14.2747 35.9619C14.3275 36.2384 14.2668 36.5245 14.1063 36.7558C13.9226 37.0203 13.5215 37.1746 12.7193 37.4831L1.50977 41.7945Z" stroke="#808080" stroke-width="2.53061" stroke-linecap="round" stroke-linejoin="round"/>
</svg>
