<svg width="25" height="24" viewBox="0 0 25 24" fill="none" xmlns="http://www.w3.org/2000/svg">
<path d="M16.1182 6V5.2C16.1182 4.0799 16.1182 3.51984 15.9002 3.09202C15.7084 2.71569 15.4025 2.40973 15.0261 2.21799C14.5983 2 14.0383 2 12.9182 2H11.3182C10.1981 2 9.63801 2 9.21018 2.21799C8.83386 2.40973 8.5279 2.71569 8.33615 3.09202C8.11816 3.51984 8.11816 4.0799 8.11816 5.2V6M10.1182 11.5V16.5M14.1182 11.5V16.5M3.11816 6H21.1182M19.1182 6V17.2C19.1182 18.8802 19.1182 19.7202 18.7912 20.362C18.5036 20.9265 18.0446 21.3854 17.4801 21.673C16.8384 22 15.9983 22 14.3182 22H9.91816C8.23801 22 7.39793 22 6.75619 21.673C6.19171 21.3854 5.73276 20.9265 5.44514 20.362C5.11816 19.7202 5.11816 18.8802 5.11816 17.2V6" stroke="black" stroke-width="2" stroke-linecap="round" stroke-linejoin="round"/>
</svg>
