<svg width="79" height="74" viewBox="0 0 79 74" fill="none" xmlns="http://www.w3.org/2000/svg">
<path d="M36.5946 5.51343C37.5103 3.71212 37.9681 2.81147 38.5897 2.52371C39.1305 2.27335 39.7588 2.27335 40.2996 2.52371C40.9212 2.81147 41.379 3.71212 42.2947 5.51343L50.9824 22.6029C51.2527 23.1346 51.3879 23.4005 51.5854 23.607C51.7603 23.7898 51.9701 23.9379 52.2031 24.0431C52.4663 24.1619 52.7684 24.2048 53.3728 24.2906L72.8057 27.0485C74.8521 27.339 75.8753 27.4842 76.3488 27.9695C76.7608 28.3917 76.9545 28.972 76.8761 29.5486C76.786 30.2114 76.0452 30.9119 74.5637 32.313L60.5072 45.6068C60.069 46.0212 59.8499 46.2284 59.7085 46.4749C59.5833 46.6932 59.503 46.933 59.4721 47.1811C59.4371 47.4612 59.4888 47.7539 59.5922 48.3393L62.9089 67.1161C63.2587 69.0965 63.4336 70.0867 63.1049 70.6743C62.8189 71.1856 62.3105 71.5442 61.7214 71.6502C61.0442 71.7721 60.1284 71.3045 58.2968 70.3692L40.924 61.4982C40.3827 61.2218 40.1121 61.0836 39.827 61.0293C39.5745 60.9812 39.3148 60.9812 39.0624 61.0293C38.7772 61.0836 38.5066 61.2218 37.9653 61.4982L20.5925 70.3692C18.7609 71.3045 17.8451 71.7721 17.1679 71.6502C16.5788 71.5442 16.0704 71.1856 15.7844 70.6743C15.4557 70.0867 15.6306 69.0965 15.9804 67.1161L19.2971 48.3393C19.4005 47.7539 19.4522 47.4612 19.4172 47.1811C19.3863 46.933 19.306 46.6932 19.1808 46.4749C19.0394 46.2284 18.8203 46.0212 18.3821 45.6068L4.32562 32.313C2.8441 30.9119 2.10335 30.2114 2.01321 29.5486C1.93478 28.972 2.12853 28.3917 2.54052 27.9695C3.01404 27.4842 4.03723 27.339 6.0836 27.0485L25.5165 24.2906C26.1209 24.2048 26.423 24.1619 26.6862 24.0431C26.9192 23.9379 27.129 23.7898 27.3039 23.607C27.5014 23.4005 27.6366 23.1346 27.9069 22.6029L36.5946 5.51343Z" stroke="#4D4D4D" stroke-width="2.88889" stroke-linecap="round" stroke-linejoin="round"/>
</svg>
