<svg width="22" height="23" viewBox="0 0 22 23" fill="none" xmlns="http://www.w3.org/2000/svg">
<path d="M9 14.3829L5.92474 17.4947C5.49579 17.9288 5.28131 18.1458 5.09695 18.1611C4.93701 18.1744 4.78042 18.1102 4.67596 17.9884C4.55556 17.848 4.55556 17.543 4.55556 16.9329V15.3745C4.55556 14.8269 4.10708 14.4306 3.5652 14.3512V14.3512C2.25374 14.1592 1.22378 13.1299 1.03168 11.8192C1 11.6031 1 11.3452 1 10.8294V6.18777C1 4.50861 1 3.66903 1.32698 3.02768C1.6146 2.46353 2.07354 2.00486 2.63803 1.71741C3.27976 1.39062 4.11984 1.39062 5.8 1.39062H13.2C14.8802 1.39062 15.7202 1.39062 16.362 1.71741C16.9265 2.00486 17.3854 2.46353 17.673 3.02768C18 3.66903 18 4.50861 18 6.18777V10.3853M18 21.3787L15.8236 19.8665C15.5177 19.6539 15.3647 19.5476 15.1982 19.4723C15.0504 19.4054 14.8951 19.3567 14.7356 19.3274C14.5558 19.2943 14.3695 19.2943 13.9969 19.2943H12.2C11.0799 19.2943 10.5198 19.2943 10.092 19.0764C9.71569 18.8848 9.40973 18.579 9.21799 18.2029C9 17.7753 9 17.2156 9 16.0962V13.5834C9 12.4639 9 11.9042 9.21799 11.4766C9.40973 11.1005 9.71569 10.7948 10.092 10.6031C10.5198 10.3853 11.0799 10.3853 12.2 10.3853H17.8C18.9201 10.3853 19.4802 10.3853 19.908 10.6031C20.2843 10.7948 20.5903 11.1005 20.782 11.4766C21 11.9042 21 12.4639 21 13.5834V16.296C21 17.2274 21 17.693 20.8478 18.0604C20.6448 18.5501 20.2554 18.9392 19.7654 19.1421C19.3978 19.2943 18.9319 19.2943 18 19.2943V21.3787Z" stroke="white" stroke-width="2" stroke-linecap="round" stroke-linejoin="round"/>
</svg>
